<?xml version="1.0" standalone="no"?>
<!DOCTYPE svg PUBLIC "-//W3C//DTD SVG 20010904//EN"
 "http://www.w3.org/TR/2001/REC-SVG-20010904/DTD/svg10.dtd">
<svg version="1.0" xmlns="http://www.w3.org/2000/svg"
 width="718.000000pt" height="718.000000pt" viewBox="0 0 718.000000 718.000000"
 preserveAspectRatio="xMidYMid meet">

<g transform="translate(0.000000,718.000000) scale(0.100000,-0.100000)"
fill="#000000" stroke="none">
<path d="M1089 7160 c-32 -40 -98 -106 -149 -150 -29 -25 -58 -50 -64 -55 -6
-6 -27 -22 -46 -35 -62 -44 -69 -58 -70 -141 0 -174 -36 -386 -84 -501 -8 -19
-39 -60 -68 -90 -62 -65 -118 -134 -118 -144 0 -4 -20 -39 -44 -78 -53 -85
-96 -180 -96 -211 0 -33 -10 -55 -24 -55 -7 0 -22 -11 -34 -25 -12 -13 -48
-37 -81 -51 -79 -35 -109 -87 -118 -203 -3 -45 -9 -81 -13 -81 -22 0 -28 -156
-14 -307 l6 -63 -35 0 -36 0 -1 -1454 -1 -1455 88 -4 c48 -3 131 -12 183 -21
52 -8 151 -16 220 -16 69 -1 145 -5 170 -11 25 -5 52 -10 60 -10 8 0 43 -2 77
-5 59 -5 64 -8 85 -42 40 -65 62 -152 39 -152 -5 0 -11 -10 -13 -22 -3 -20
-10 -23 -55 -26 -29 -2 -106 3 -170 11 -65 8 -138 15 -162 16 -25 1 -48 4 -52
7 -7 4 -208 19 -377 29 -91 5 -92 3 -92 -81 l0 -74 48 0 c26 0 98 -7 161 -15
101 -14 200 -22 496 -41 117 -7 153 -20 212 -77 43 -42 56 -49 80 -44 15 3 60
11 98 17 39 6 108 20 155 31 47 10 101 19 119 19 18 0 42 5 54 12 12 6 48 15
82 19 61 8 152 24 192 34 12 3 25 14 28 25 3 11 14 21 23 21 34 3 -86 17 -206
24 l-122 8 -31 35 c-27 31 -30 39 -24 76 4 23 10 160 13 306 l7 265 28 29 27
29 82 -12 c46 -6 142 -17 213 -23 72 -6 132 -14 135 -19 7 -11 219 -16 223 -5
1 4 11 -34 21 -85 18 -91 33 -162 76 -346 11 -49 41 -153 66 -233 25 -80 52
-167 60 -195 35 -111 180 -379 291 -535 115 -163 253 -323 439 -510 l124 -125
0 -150 c0 -82 3 -160 6 -172 l6 -23 580 0 579 0 -24 32 c-19 25 -23 38 -16 55
8 23 -4 42 -16 23 -3 -5 -9 -10 -13 -10 -7 0 -37 56 -65 120 -31 74 -39 332
-12 426 29 101 122 209 225 261 49 25 66 27 161 28 l106 0 59 -45 c32 -25 61
-48 62 -52 2 -5 8 -8 14 -8 16 0 78 -66 78 -83 0 -11 -14 -11 -87 0 -47 7 -90
18 -95 25 -5 7 -6 28 -2 47 5 31 4 33 -10 22 -9 -8 -16 -29 -16 -47 0 -28 -4
-34 -22 -34 -12 0 -37 -5 -55 -12 -26 -9 -41 -10 -65 0 -36 13 -46 9 -29 -12
14 -16 7 -36 -12 -36 -7 0 -25 -16 -42 -35 -16 -19 -33 -35 -37 -35 -4 0 -17
10 -28 23 -17 17 -20 30 -16 60 5 29 3 38 -6 35 -23 -8 -22 -78 2 -110 l22
-30 -22 -51 c-16 -35 -24 -80 -28 -139 l-4 -88 -34 0 c-53 0 -86 69 -49 100
19 16 19 30 0 30 -9 0 -23 -16 -32 -35 -16 -34 -16 -38 1 -69 19 -36 52 -56
90 -56 21 0 23 -6 34 -106 7 -59 16 -112 21 -118 5 -6 11 -24 13 -41 l3 -30
314 -3 313 -2 -5 22 c-3 13 -13 50 -22 83 -20 72 -14 133 16 178 32 47 49 57
91 57 21 0 47 5 57 12 15 9 25 9 46 0 14 -7 57 -12 95 -12 40 0 72 -5 76 -11
10 -17 139 -5 202 19 29 11 54 16 58 11 3 -5 10 -6 16 -3 8 5 9 1 5 -10 -9
-22 13 -206 25 -206 4 0 8 -5 8 -12 0 -7 10 -38 22 -70 l23 -58 127 0 126 0
-14 53 c-26 94 -33 188 -24 287 17 168 24 184 67 144 14 -13 30 -24 35 -24 6
0 24 -6 41 -14 98 -43 384 -43 512 1 85 29 178 40 208 25 12 -6 69 -13 126
-16 56 -3 108 -9 115 -14 6 -5 30 -12 53 -16 23 -3 48 -9 57 -12 14 -5 16 13
16 171 0 165 -1 177 -17 170 -10 -4 -53 -10 -96 -14 -70 -6 -80 -5 -88 11 -13
25 -32 23 -24 -2 7 -23 -12 -33 -84 -44 -40 -6 -43 -5 -38 14 8 32 -12 34 -25
3 -16 -36 -18 -37 -102 -63 -39 -12 -75 -26 -81 -31 -5 -5 -24 -9 -42 -9 -18
0 -33 -4 -33 -9 0 -9 -31 -23 -94 -41 -28 -9 -28 -9 -24 30 5 57 -19 52 -28
-5 -3 -25 -10 -47 -14 -50 -15 -9 -109 14 -129 32 -29 24 -27 59 6 80 14 10
74 29 132 44 58 15 142 37 186 50 192 53 268 72 400 100 77 16 152 29 168 29
l27 0 -1 573 -1 572 -23 -65 c-12 -36 -34 -99 -49 -140 -14 -41 -30 -84 -36
-95 -5 -11 -16 -37 -24 -58 -8 -20 -19 -37 -23 -37 -4 0 -17 28 -27 62 -11 33
-28 68 -38 77 -10 8 -18 21 -18 28 0 7 -4 13 -8 13 -5 0 -30 37 -57 82 -65
109 -120 162 -189 182 -56 17 -113 20 -140 10 -31 -12 -4 -24 55 -24 66 0 143
-32 185 -77 43 -46 86 -147 110 -254 20 -91 13 -295 -15 -421 -14 -66 -148
-335 -179 -358 -28 -22 -102 -27 -148 -10 -46 18 -142 84 -155 106 -11 21 -56
49 -72 45 -5 -1 -5 4 -1 10 4 7 -10 29 -35 53 -105 105 -214 246 -236 307 -9
24 -21 52 -26 61 -19 36 -21 123 -5 208 9 46 20 87 24 90 4 3 23 61 42 130 19
69 40 136 47 150 7 14 13 33 13 43 0 9 11 48 24 86 13 37 27 88 31 112 4 24
10 49 14 54 9 13 63 194 65 220 2 12 15 53 26 80 4 11 23 83 40 160 18 77 37
147 41 156 5 9 11 31 14 50 3 18 9 36 13 39 12 8 52 220 52 272 0 26 4 50 10
53 15 9 85 -31 114 -66 15 -18 38 -54 52 -81 25 -49 25 -50 21 -276 -5 -223
-8 -273 -28 -361 -10 -44 -5 -70 7 -35 3 10 19 46 34 79 32 67 55 133 74 215
8 30 16 62 20 70 7 17 15 86 21 184 3 45 11 76 22 88 21 23 13 31 -21 19 -30
-12 -31 -7 -12 40 13 31 23 85 46 239 4 30 4 102 0 160 -6 95 -5 108 12 133
34 48 95 27 160 -54 42 -54 62 -102 84 -199 19 -83 19 -127 5 -215 -6 -33 -18
-105 -27 -160 -16 -105 -28 -132 -41 -99 -13 33 -86 120 -121 144 -56 39 -48
12 14 -50 34 -34 71 -80 82 -104 22 -43 22 -44 7 -207 -9 -90 -13 -174 -10
-187 4 -15 2 -21 -5 -17 -6 4 -10 -4 -10 -20 0 -14 -4 -33 -9 -43 -5 -9 -15
-56 -21 -105 -7 -48 -16 -90 -21 -93 -5 -3 -9 -21 -9 -40 0 -19 -4 -42 -9 -52
-19 -36 -41 -91 -41 -104 0 -7 -7 -22 -15 -32 -8 -11 -15 -26 -15 -35 0 -11 4
-10 19 5 10 10 17 21 15 23 -2 2 13 29 33 59 49 78 102 207 95 234 -3 14 -2
19 6 14 7 -4 12 -1 12 8 0 8 5 27 12 43 12 32 12 30 33 149 8 48 15 104 15
126 0 33 4 40 27 49 15 5 38 8 50 4 16 -4 23 -1 23 9 0 10 -13 16 -43 18 l-43
3 19 105 c10 58 22 112 26 120 15 29 33 120 27 135 -3 8 -1 15 5 15 6 0 9 56
8 150 -1 127 -3 149 -15 139 -8 -6 -14 -18 -14 -25 0 -8 -6 -14 -14 -14 -10 0
-16 19 -21 63 -7 63 -43 156 -73 191 -16 18 -16 18 4 8 12 -6 24 -9 27 -6 3 3
9 -10 12 -30 4 -20 11 -36 17 -36 5 0 7 -4 4 -9 -8 -13 14 -74 32 -88 43 -34
42 -44 42 610 l0 624 -37 1 c-25 0 -32 -2 -20 -7 15 -6 12 -9 -17 -21 -20 -7
-36 -19 -36 -24 0 -6 -5 -4 -10 4 -8 13 -10 13 -10 -2 0 -11 -5 -15 -15 -12
-8 4 -31 -1 -51 -11 -20 -9 -45 -14 -57 -11 -11 3 -27 0 -35 -6 -10 -8 -15 -9
-20 -1 -4 6 -23 11 -42 10 -19 0 -51 7 -69 16 -19 9 -39 17 -45 17 -6 0 -24
12 -41 27 -16 14 -22 23 -12 20 11 -4 17 -1 17 8 0 8 -4 15 -10 15 -5 0 -10 6
-10 13 0 8 -8 13 -17 13 -10 -1 -18 4 -18 9 0 6 9 9 20 8 11 -1 14 1 8 3 -24
10 -13 24 20 25 l32 2 -30 4 c-16 3 -38 12 -48 21 -18 16 -20 15 -32 -2 -8
-10 -19 -15 -25 -11 -6 3 -10 3 -9 -2 5 -29 -2 -35 -20 -15 -25 30 -34 27 -29
-9 6 -37 -20 -56 -53 -38 -12 6 -34 8 -50 5 -17 -3 -29 -1 -29 5 0 6 -9 8 -21
4 -13 -5 -19 -3 -15 3 8 13 46 22 46 11 0 -5 5 -9 11 -9 6 0 9 6 6 14 -6 15
13 36 35 40 45 8 58 18 58 47 0 34 -8 36 -41 12 -40 -30 -73 -46 -104 -53 -20
-4 -30 -12 -29 -23 1 -9 -4 -17 -12 -17 -8 0 -14 6 -14 14 0 21 -22 25 -137
27 -78 2 -103 6 -103 16 0 7 -4 13 -10 13 -5 0 -10 -4 -10 -10 0 -5 -9 -10
-20 -10 -13 0 -20 7 -20 20 0 13 7 20 20 20 11 0 20 4 20 9 0 13 -83 25 -124
18 -21 -3 -33 -1 -34 6 -5 64 -45 214 -67 257 -21 42 -19 66 13 113 64 97 132
278 132 356 0 48 11 54 66 37 115 -36 182 -70 264 -135 46 -36 163 -161 157
-167 -2 -2 -34 8 -73 22 -38 14 -80 29 -94 34 -14 4 -58 24 -98 44 -79 39 -82
40 -82 28 0 -11 199 -105 270 -128 76 -24 106 -48 137 -107 30 -59 64 -177 56
-191 -3 -5 -1 -6 4 -3 10 6 21 -20 29 -68 2 -11 11 -52 19 -91 14 -63 18 -71
35 -67 25 7 27 -14 3 -21 -10 -3 2 -2 27 1 78 10 93 12 190 18 82 5 210 20
260 30 8 2 23 4 33 4 9 1 17 8 17 17 0 8 -4 13 -8 10 -5 -3 -24 -8 -43 -11
-19 -3 -59 -10 -89 -15 -52 -8 -193 -14 -287 -11 -35 1 -42 5 -46 24 l-4 22
-2 -22 c-2 -37 -37 -30 -45 8 -8 43 -8 51 3 44 5 -3 81 -1 168 5 145 9 205 20
273 48 14 6 37 13 53 16 19 5 27 13 27 27 0 20 -1 21 -25 5 -14 -9 -25 -14
-25 -11 0 3 -17 -2 -37 -10 -110 -42 -387 -72 -447 -49 -19 7 -21 43 -3 48
187 58 253 83 244 93 -3 3 -49 -10 -102 -28 -53 -17 -113 -32 -132 -33 -35 -1
-37 1 -55 53 -10 29 -30 80 -43 112 -13 32 -23 59 -22 59 1 0 40 13 85 29 125
44 276 55 371 27 70 -21 90 -32 144 -84 30 -30 47 -41 47 -30 0 20 -69 88
-111 110 -67 33 -113 40 -245 36 -102 -4 -142 -10 -189 -27 -33 -13 -75 -25
-92 -28 -29 -4 -33 -2 -33 16 0 12 -4 21 -8 21 -5 0 -14 12 -20 26 -7 14 -8
23 -3 20 5 -4 39 -2 75 3 37 5 79 6 95 1 39 -11 192 -15 212 -6 10 4 34 3 56
-3 36 -10 76 -9 143 4 14 2 46 7 73 10 l47 6 0 810 0 809 -795 0 -795 0 0 -89
c0 -48 -5 -102 -11 -119 -16 -46 -6 -61 13 -21 9 19 40 59 68 89 42 45 51 51
46 30 -24 -115 -27 -181 -20 -393 3 -126 10 -225 15 -220 4 4 11 60 15 123 5
83 11 120 23 133 26 30 99 58 142 55 l39 -3 -24 -28 c-36 -42 -50 -122 -41
-240 4 -55 13 -124 21 -154 19 -74 42 -195 62 -322 14 -97 14 -112 -1 -205
-23 -134 -64 -259 -83 -252 -16 6 -19 -10 -4 -19 13 -8 -25 -71 -41 -67 -6 1
-8 -5 -5 -16 4 -12 0 -25 -11 -33 -15 -12 -16 -12 -10 3 4 13 2 16 -11 11 -9
-3 -14 -3 -10 2 4 4 -8 28 -27 53 -19 25 -35 51 -35 58 0 7 -6 15 -12 17 -10
4 -10 6 0 6 6 1 12 8 12 16 0 8 9 32 20 53 11 22 23 48 25 58 2 11 15 51 28
89 36 105 45 141 57 241 11 87 12 266 3 292 -14 36 -21 -5 -26 -165 -7 -215
-21 -280 -99 -460 -22 -51 -43 -93 -47 -93 -3 0 -32 24 -63 53 l-58 52 11 65
c18 111 27 153 44 210 9 30 19 99 22 153 5 87 4 97 -11 97 -14 0 -16 -6 -11
-30 4 -16 1 -47 -6 -67 -12 -38 -105 -182 -154 -237 -28 -32 -29 -36 -15 -36
5 0 36 35 69 78 33 42 69 88 81 102 l21 25 -7 -35 c-4 -19 -23 -53 -43 -74
-93 -102 -220 -223 -251 -240 -83 -45 -147 -139 -175 -258 -11 -48 -22 -69
-50 -95 -19 -17 -35 -36 -35 -42 0 -5 -15 -14 -34 -21 -19 -6 -36 -19 -39 -29
-3 -14 -11 -18 -33 -13 -17 3 -25 1 -21 -4 5 -5 14 -9 20 -9 5 0 12 -7 14 -15
4 -13 3 -13 -6 0 -9 13 -11 12 -11 -5 -1 -17 -2 -18 -13 -5 -14 18 -37 24 -37
10 0 -6 4 -10 9 -10 13 0 8 -24 -8 -44 -12 -14 -16 -14 -43 0 -28 14 -30 14
-35 -5 -3 -10 -17 -22 -31 -26 -15 -4 -35 -14 -46 -23 -18 -16 -18 -16 -12 6
9 27 6 27 -47 2 l-42 -21 30 23 c16 13 54 44 83 71 29 26 57 47 62 47 15 0
180 105 220 140 77 67 90 80 90 91 0 10 -24 -3 -40 -22 -20 -23 -105 -79 -121
-79 -11 0 -18 -4 -15 -9 6 -10 -37 -31 -64 -31 -24 0 -25 8 -5 37 10 14 12 24
5 28 -7 4 -6 13 1 27 8 15 14 17 22 9 18 -18 26 -13 37 30 6 22 18 43 25 46 8
3 12 10 8 16 -4 6 0 8 10 4 10 -3 17 -2 17 2 0 5 3 17 7 27 5 13 3 15 -7 9
-10 -6 -12 -4 -7 9 4 10 7 20 7 22 0 3 4 3 9 0 5 -3 14 8 20 24 5 17 14 30 19
30 6 0 12 10 15 23 4 12 13 31 22 42 l15 20 -7 -20 c-3 -11 -3 -17 2 -13 4 4
11 25 15 45 3 22 11 37 18 36 7 -2 12 10 12 30 0 40 26 81 47 72 14 -5 14 -3
2 12 -12 15 -12 16 4 10 10 -4 16 -3 12 3 -6 10 15 50 27 50 3 0 9 -8 11 -17
4 -14 5 -12 6 5 0 12 -4 22 -10 22 -8 0 -7 5 1 15 11 13 15 13 22 3 7 -9 8 -4
4 13 -7 30 27 72 38 47 3 -7 4 -4 1 8 -5 18 18 81 35 94 9 7 60 133 60 148 0
31 -19 3 -73 -107 -32 -65 -87 -159 -123 -207 -65 -89 -244 -288 -251 -280 -5
5 58 130 69 134 4 2 8 14 8 26 0 12 4 26 9 32 13 13 65 174 89 274 11 47 25
157 32 245 6 88 13 174 15 190 3 32 -13 295 -21 333 -2 12 -9 22 -15 22 -8 0
-9 -34 -4 -112 12 -197 7 -428 -11 -500 -1 -5 -2 -25 -3 -45 -1 -29 -4 -35
-12 -23 -7 11 -9 2 -8 -35 2 -93 0 -105 -16 -99 -8 3 -13 11 -12 16 1 6 -4 13
-10 15 -14 5 -18 -13 -5 -21 24 -15 -22 -236 -49 -236 -5 0 -6 -6 -3 -14 5
-14 -24 -31 -35 -20 -3 4 0 9 7 11 6 3 12 11 12 19 0 9 -5 12 -11 9 -5 -4 -21
5 -35 20 -21 23 -30 26 -65 21 -38 -5 -41 -4 -36 14 7 25 -11 38 -19 13 -3
-10 -10 -26 -16 -37 -7 -14 -6 -21 4 -27 9 -6 7 -9 -9 -9 -13 0 -23 -4 -23
-10 0 -5 -3 -9 -7 -9 -20 3 -26 -2 -13 -11 11 -7 6 -10 -22 -10 -20 0 -39 -6
-42 -12 -3 -7 -5 -4 -3 7 1 11 -2 26 -6 33 -5 7 -10 25 -13 40 -2 15 -9 51
-15 80 -6 29 -8 60 -5 68 3 8 2 13 -3 10 -9 -6 -56 130 -52 152 1 6 -2 12 -7
12 -11 0 -42 66 -42 90 0 10 -4 20 -8 22 -5 2 -15 15 -23 30 -29 57 -133 202
-136 191 -2 -6 8 -28 22 -49 40 -59 156 -297 171 -349 2 -5 12 -39 24 -75 11
-36 26 -117 32 -180 13 -143 -3 -245 -58 -356 -56 -115 -64 -114 -57 3 18 302
-74 546 -297 788 -33 35 -46 58 -45 77 2 30 23 61 36 52 5 -3 12 8 15 24 3 16
16 41 27 55 12 14 30 36 40 49 9 12 17 16 17 9 0 -9 5 -8 16 3 8 9 18 16 22
16 11 0 31 50 22 55 -5 3 -17 -8 -26 -25 -21 -35 -41 -41 -23 -7 7 12 15 24
19 27 4 3 17 24 29 48 13 25 28 42 39 42 12 0 13 3 4 8 -9 6 -6 14 12 30 17
14 26 17 30 9 4 -7 4 -2 2 11 -5 26 25 102 59 147 12 17 24 39 27 50 3 11 13
37 22 58 15 35 15 37 -1 37 -19 0 -83 -105 -83 -135 0 -9 -9 -15 -22 -15 -15
0 -19 -3 -11 -8 12 -8 10 -14 -54 -130 -12 -22 -28 -46 -35 -54 -7 -7 -22 -29
-32 -48 -11 -19 -30 -48 -43 -63 -13 -16 -23 -35 -23 -43 0 -8 -5 -14 -10 -14
-6 0 -15 -11 -21 -24 -7 -14 -17 -22 -25 -19 -9 3 -14 -2 -14 -15 0 -12 -11
-37 -24 -57 -14 -20 -22 -43 -19 -55 7 -27 -5 -25 -17 3 l-9 22 0 -22 c-1 -13
-5 -23 -11 -23 -9 0 6 -23 38 -56 11 -12 11 -17 -2 -30 -18 -17 -21 -34 -7
-34 5 0 12 -9 16 -19 3 -11 19 -36 36 -57 31 -39 33 -70 7 -102 -12 -13 -44
17 -90 84 -13 19 -28 34 -35 34 -6 0 -18 8 -25 18 -7 9 -25 23 -40 31 -15 8
-25 19 -21 24 3 6 2 7 -4 4 -5 -3 -22 3 -39 14 -16 10 -25 19 -20 19 5 0 3 7
-4 15 -14 17 -30 20 -30 4 0 -5 4 -7 10 -4 5 3 10 1 10 -4 0 -14 -1 -14 -52 3
-121 39 -327 76 -417 76 -65 -1 -218 -23 -229 -34 -15 -16 13 -16 77 -2 38 9
103 16 143 16 94 0 332 -44 366 -67 27 -18 31 -19 55 -22 9 -1 9 -3 -1 -10
-11 -7 -10 -10 3 -15 9 -3 21 -4 26 0 5 3 9 1 9 -5 0 -6 8 -8 18 -5 13 5 14 4
3 -4 -12 -8 -9 -16 14 -44 16 -18 26 -26 23 -18 -3 8 -2 23 1 32 5 15 8 15 26
1 l20 -16 -20 6 c-19 6 -19 6 -1 -6 11 -7 28 -20 38 -29 10 -10 18 -15 18 -11
0 4 15 -8 33 -25 18 -18 37 -29 42 -25 4 5 6 1 2 -8 -6 -19 20 -62 33 -54 5 3
11 1 14 -4 10 -16 -14 -24 -29 -11 -13 10 -16 7 -21 -19 -4 -17 -12 -31 -20
-31 -7 0 -15 -8 -17 -17 -4 -17 -5 -17 -6 0 -1 18 -21 25 -21 6 0 -5 22 -56
50 -112 50 -104 62 -142 45 -142 -6 0 -9 4 -7 8 1 5 -7 11 -18 14 -11 3 -20
10 -20 15 0 5 5 6 10 3 6 -3 10 -2 10 3 0 6 -7 12 -15 16 -8 3 -15 15 -15 26
0 11 -5 20 -11 20 -5 0 -7 5 -4 10 3 6 2 10 -2 10 -5 0 -33 29 -63 65 -47 56
-59 64 -80 59 -30 -7 -52 -23 -45 -34 3 -5 -5 -6 -17 -3 -23 6 -23 6 2 -23 14
-16 28 -30 33 -32 4 -2 7 -13 7 -23 0 -11 3 -18 8 -15 4 2 15 -2 25 -9 11 -8
14 -16 8 -19 -13 -8 -5 -45 12 -60 23 -18 57 -136 39 -136 -4 0 -25 16 -46 35
-22 19 -46 35 -53 35 -7 0 -13 6 -13 14 0 7 -13 19 -30 26 -17 7 -30 16 -30
21 0 5 -7 6 -15 3 -8 -4 -15 -1 -15 6 0 6 -4 8 -10 5 -5 -3 -10 -2 -10 4 0 5
-17 15 -37 21 -21 6 -45 14 -53 17 -32 12 -56 10 -82 -8 -14 -11 -30 -19 -35
-19 -4 0 -1 5 7 11 12 8 9 9 -12 5 -14 -3 -35 -3 -45 2 -13 5 -6 9 27 14 30 4
19 5 -31 3 -42 -3 -84 -8 -94 -11 -14 -6 -16 -4 -10 6 6 10 3 11 -16 6 -13 -4
-30 -8 -36 -8 -7 -1 -13 -5 -13 -10 0 -4 -12 -8 -27 -8 -26 0 -93 -19 -103
-30 -3 -3 -22 -14 -43 -24 -56 -29 -142 -115 -165 -167 -41 -91 -54 -146 -59
-251 -5 -94 -4 -108 10 -108 17 0 47 -52 47 -81 0 -24 68 -139 86 -146 8 -3
14 -11 14 -17 0 -20 121 -120 177 -147 86 -39 67 -56 -57 -49 -25 1 -49 5 -55
10 -5 4 -26 10 -45 14 -19 4 -45 9 -58 12 -37 7 -135 57 -166 84 -103 90 -216
234 -216 275 0 8 -4 15 -8 15 -15 0 -51 222 -49 297 1 40 5 73 10 73 4 0 7 13
7 30 0 29 15 71 51 141 22 43 25 66 4 29 -19 -34 -19 -17 0 21 9 16 20 27 25
24 6 -3 7 1 3 10 -3 10 -2 20 3 24 11 7 48 62 50 74 1 4 2 12 3 17 0 6 5 10
11 10 15 0 60 49 60 66 0 8 5 12 10 9 6 -3 10 1 10 9 0 8 9 18 20 21 11 3 20
13 20 21 0 8 5 12 10 9 6 -3 10 1 10 9 0 9 4 16 10 16 5 0 27 16 49 35 21 19
41 35 45 35 4 0 29 16 57 35 28 19 56 35 62 35 5 0 35 12 64 26 48 22 158 50
277 69 27 5 35 9 26 15 -7 4 -23 7 -34 5 -12 -2 -49 -6 -83 -10 -105 -10 -261
-62 -326 -107 -15 -11 -34 -21 -41 -22 -20 -3 -56 -29 -113 -84 -29 -27 -54
-45 -56 -39 -6 18 -27 -3 -27 -26 0 -18 -2 -19 -10 -7 -7 12 -13 6 -26 -27
-11 -28 -23 -43 -35 -43 -10 0 -21 -5 -25 -12 -5 -8 -2 -9 10 -5 10 4 15 3 11
-3 -3 -6 -13 -10 -21 -10 -8 0 -14 -8 -14 -18 0 -10 -6 -24 -12 -30 -7 -7 -14
-16 -14 -20 -4 -26 -31 -72 -42 -72 -9 0 -11 12 -7 47 3 25 9 51 14 57 4 6 11
25 15 41 6 27 59 138 103 219 22 41 138 152 199 191 78 50 111 65 183 86 83
22 327 36 391 20 25 -5 49 -6 53 -2 5 5 -6 12 -25 16 -76 15 -71 1 -66 164 4
117 11 173 37 281 17 74 31 138 31 142 0 16 -19 7 -25 -12 -4 -11 -9 -18 -13
-16 -4 2 -8 -12 -9 -32 -2 -21 -7 -46 -11 -57 -9 -20 -26 -66 -44 -120 -6 -16
-16 -43 -24 -58 -8 -16 -14 -35 -14 -43 0 -8 -5 -14 -11 -14 -6 0 -8 -8 -4
-19 3 -11 1 -22 -5 -26 -5 -3 -10 -17 -10 -31 0 -14 -4 -23 -9 -19 -6 3 -9 -3
-9 -12 2 -32 -22 -101 -37 -106 -7 -3 -50 -7 -95 -8 -44 -1 -83 -5 -85 -9 -3
-4 -17 -11 -32 -15 -42 -10 -141 -54 -159 -70 -6 -5 -33 -28 -60 -50 -51 -41
-110 -99 -156 -153 -26 -30 -48 -67 -94 -154 l-20 -40 -27 118 c-42 184 -67
403 -67 589 0 97 6 111 103 286 41 73 43 79 24 79 -8 0 -20 -12 -28 -27 -7
-16 -24 -45 -36 -65 -13 -21 -20 -38 -17 -38 4 0 2 -6 -3 -12 -6 -7 -24 -39
-42 -71 l-31 -58 6 -242 c3 -133 2 -252 -3 -264 -4 -12 -6 -69 -3 -128 3 -59
2 -113 -3 -120 -4 -7 -2 -26 3 -41 15 -38 7 -40 -26 -4 -16 16 -37 30 -47 30
-10 0 -44 12 -75 26 -31 15 -70 30 -87 35 -16 4 -51 14 -77 23 -26 8 -50 11
-52 7 -3 -4 43 -24 102 -43 128 -43 218 -94 290 -165 56 -56 60 -69 37 -138
-9 -25 -13 -51 -9 -57 5 -8 0 -9 -16 -5 -13 3 -30 2 -36 -4 -9 -7 -16 -5 -24
10 -12 23 -36 28 -43 9 -3 -8 -9 -2 -15 13 -6 15 -21 34 -34 43 -12 9 -19 16
-14 16 5 0 3 7 -4 15 -7 8 -20 15 -29 15 -13 -1 -13 -3 3 -15 11 -8 17 -17 14
-20 -3 -3 -16 4 -31 15 -14 11 -29 20 -33 20 -4 0 -22 16 -40 35 -18 20 -34
30 -36 24 -5 -15 -48 10 -48 28 0 7 -3 12 -7 11 -5 -1 -53 13 -108 31 -128 41
-222 61 -293 61 -65 0 -213 -23 -256 -39 -52 -21 -19 -23 61 -4 54 12 115 18
198 17 107 0 130 -4 212 -31 185 -63 302 -138 458 -292 51 -50 97 -91 104 -91
7 0 11 -23 11 -65 0 -45 -4 -65 -12 -65 -17 0 -40 15 -38 24 3 13 -50 67 -60
61 -6 -4 -10 1 -10 10 0 9 -5 13 -11 10 -5 -4 -19 1 -31 12 -11 10 -23 18 -27
18 -3 0 -5 3 -4 6 4 13 -33 37 -77 52 -25 8 -45 21 -45 28 0 9 -13 14 -38 15
-20 1 -41 5 -45 9 -4 5 1 6 10 2 9 -3 19 0 22 9 3 8 1 15 -4 15 -6 1 -16 2
-22 3 -7 1 -22 -6 -32 -16 -18 -16 -18 -19 -2 -43 9 -14 25 -25 36 -25 13 0
24 -10 30 -25 5 -13 23 -31 40 -40 21 -11 30 -21 26 -31 -3 -9 -6 -18 -6 -21
0 -3 -7 0 -15 7 -8 7 -12 17 -8 23 3 6 1 7 -6 3 -8 -5 -5 -16 9 -37 12 -16 26
-29 31 -29 5 0 9 -7 9 -16 0 -8 4 -13 9 -10 5 3 8 0 8 -7 -1 -6 14 -43 32 -82
19 -38 37 -77 41 -86 4 -8 16 -50 25 -93 13 -56 14 -81 6 -89 -8 -8 -15 -1
-26 26 -8 20 -21 40 -28 44 -7 4 -20 21 -30 36 -36 57 -173 182 -233 214 -34
18 -64 30 -68 26 -3 -4 -12 2 -19 12 -11 14 -31 18 -111 21 -75 2 -98 0 -102
-10 -3 -8 -26 -17 -52 -21 -68 -9 -87 -16 -72 -25 8 -5 3 -9 -14 -12 -14 -3
-23 -2 -21 3 9 14 -33 -3 -54 -22 -11 -10 -24 -19 -29 -19 -18 0 -133 -114
-159 -157 -25 -43 -26 -48 -20 -171 5 -131 16 -176 78 -307 57 -121 172 -236
292 -292 31 -15 57 -30 57 -34 0 -26 -149 -9 -274 32 -163 53 -270 226 -320
519 -3 14 -5 41 -5 59 -1 54 -21 25 -37 -56 -10 -42 -14 -114 -13 -191 1 -67
0 -124 -3 -127 -6 -6 -50 101 -71 175 -27 91 -37 178 -37 311 0 343 132 518
460 610 123 35 300 33 419 -5 46 -14 89 -30 95 -34 16 -13 57 -22 50 -11 -3 5
-1 9 3 9 5 0 17 -14 28 -32 12 -20 20 -27 23 -19 6 17 -60 80 -90 87 -13 3
-34 8 -48 11 -14 3 -32 11 -40 18 -8 7 -26 12 -40 10 -14 -1 -28 3 -32 9 -4 6
-42 12 -85 13 -140 3 -285 -26 -435 -88 -38 -15 -68 -25 -68 -21 1 17 29 83
64 149 50 95 165 209 260 260 100 54 158 72 262 84 152 17 283 -9 436 -87 32
-16 49 -21 46 -12 -2 7 -53 37 -114 67 l-109 54 -120 5 c-71 2 -149 -1 -190
-8 -39 -7 -85 -14 -102 -17 -18 -3 -30 -9 -27 -14 3 -5 -3 -6 -12 -2 -10 3
-22 0 -28 -8 -16 -20 -96 -59 -96 -47 0 5 -7 2 -16 -6 -8 -9 -20 -14 -25 -11
-5 4 -6 -1 -3 -9 7 -17 -11 -22 -19 -6 -3 6 -4 5 -2 -2 1 -7 -11 -28 -28 -45
-29 -31 -32 -32 -49 -17 -16 16 -17 15 -13 -16 5 -40 -3 -60 -22 -60 -13 0
-13 2 -2 17 12 15 12 16 -5 10 -17 -7 -18 -4 -12 40 4 27 11 88 16 136 5 54
15 95 24 105 8 10 27 53 42 97 15 44 36 93 45 110 10 17 25 49 33 72 8 24 31
74 50 113 20 39 36 78 36 86 0 7 4 14 8 14 5 0 21 25 36 55 16 30 39 66 52 80
25 27 34 95 13 95 -5 0 -7 -5 -4 -10 3 -6 -1 -13 -9 -16 -8 -3 -18 -16 -22
-27 -3 -12 -17 -36 -30 -54 -13 -17 -24 -35 -24 -39 0 -4 -11 -22 -25 -40 -14
-18 -25 -39 -25 -47 0 -8 -10 -17 -22 -21 -18 -5 -20 -8 -9 -15 12 -7 11 -12
-1 -30 -8 -11 -18 -18 -23 -13 -5 4 -5 2 -2 -4 9 -15 -40 -115 -54 -111 -6 1
-14 -5 -16 -13 -4 -13 -3 -13 6 0 15 21 14 -2 -1 -37 -7 -15 -18 -31 -25 -36
-7 -4 -9 -15 -6 -24 4 -10 2 -14 -4 -10 -6 4 -16 -8 -24 -26 -7 -17 -21 -39
-31 -48 -10 -9 -21 -30 -24 -47 -4 -18 -10 -30 -14 -27 -9 6 -20 -19 -20 -47
0 -11 -5 -18 -12 -16 -13 5 -43 -41 -33 -50 3 -3 5 0 5 6 0 7 4 12 9 12 11 0
0 -44 -17 -76 -12 -21 -33 -164 -34 -231 0 -24 -5 -40 -10 -37 -4 3 -8 11 -7
17 4 35 -2 47 -26 47 -14 0 -25 -5 -25 -11 0 -8 -4 -8 -14 1 -8 6 -25 10 -38
8 -13 -2 -22 2 -21 7 1 6 -32 10 -83 9 -71 -1 -84 1 -84 15 0 13 -2 13 -9 2
-6 -9 -25 -12 -67 -9 -36 2 -63 -1 -69 -8 -5 -6 -37 -21 -70 -34 -33 -13 -86
-43 -118 -67 -32 -24 -62 -41 -68 -38 -5 4 -8 3 -7 -2 5 -13 -55 -92 -75 -99
-9 -3 -15 -9 -12 -14 8 -12 -6 -41 -16 -34 -13 8 -11 54 2 54 6 0 8 7 5 15 -3
9 1 18 9 21 8 4 15 15 15 25 0 10 5 19 10 19 6 0 10 9 10 20 0 11 6 23 14 26
8 3 18 19 21 35 13 60 259 277 335 296 14 3 27 9 30 13 8 12 88 50 105 50 8 0
15 4 15 9 0 6 40 22 90 38 83 26 113 43 74 43 -14 0 -16 8 -10 54 16 138 121
476 148 476 4 0 8 4 8 10 0 5 25 59 55 120 30 62 49 110 42 108 -10 -4 -167
-294 -183 -340 -4 -10 -10 -18 -15 -18 -5 0 -9 -9 -9 -20 0 -11 -6 -20 -14
-20 -8 0 -20 -16 -27 -35 -7 -19 -17 -35 -21 -35 -4 0 -7 -3 -6 -7 2 -8 -51
-96 -72 -120 -5 -7 -10 -18 -11 -25 0 -7 -9 -26 -19 -43 -37 -58 -58 -100 -65
-133 -3 -18 -11 -30 -16 -26 -5 3 -6 11 -3 17 4 7 -5 1 -19 -12 -27 -25 -38
-43 -14 -22 8 6 17 8 20 5 4 -4 -20 -19 -52 -34 -32 -16 -82 -44 -111 -64 -60
-41 -77 -45 -56 -13 8 12 24 58 36 102 12 44 28 100 36 124 9 27 17 106 20
205 6 171 17 215 58 234 44 20 296 253 296 273 0 16 -25 9 -41 -11z m4648 -26
c-3 -3 -12 -4 -19 -1 -8 3 -5 6 6 6 11 1 17 -2 13 -5z m20 -85 c-12 -27 -16
-31 -22 -17 -4 9 1 28 11 44 23 34 29 17 11 -27z m-36 -202 c1 -43 -1 -80 -5
-84 -3 -3 -6 33 -6 82 0 108 8 109 11 2z m134 -37 c4 -6 -5 -10 -20 -10 -15 0
-24 4 -20 10 3 6 12 10 20 10 8 0 17 -4 20 -10z m-78 -36 c-3 -3 -12 -4 -19
-1 -8 3 -5 6 6 6 11 1 17 -2 13 -5z m150 -96 c-3 -7 -5 -2 -5 12 0 14 2 19 5
13 2 -7 2 -19 0 -25z m-13 -55 c3 -29 0 -40 -10 -40 -15 0 -18 27 -8 65 9 30
13 24 18 -25z m-4 -72 c0 -17 -18 -21 -24 -6 -3 9 0 15 9 15 8 0 15 -4 15 -9z
m-1735 -172 c-4 -5 1 -9 9 -9 9 0 16 -4 16 -9 0 -5 14 -22 30 -38 35 -33 37
-39 10 -39 -12 0 -19 5 -16 12 2 6 -10 25 -28 41 -18 15 -33 36 -33 45 0 10 4
15 9 12 5 -3 6 -10 3 -15z m135 -150 c0 -6 -7 -9 -15 -5 -8 3 -15 1 -15 -5 0
-6 -4 -7 -10 -4 -18 11 -10 25 15 25 14 0 25 -5 25 -11z m-80 -36 c0 -12 -2
-12 -15 1 -8 8 -15 17 -15 20 0 3 7 3 15 0 8 -4 15 -13 15 -21z m827 -65 c-3
-8 -6 -5 -6 6 -1 11 2 17 5 13 3 -3 4 -12 1 -19z m-841 -13 c3 -14 10 -25 15
-25 6 0 5 8 -1 19 -14 28 -12 36 5 21 9 -7 15 -28 14 -49 0 -20 -3 -29 -6 -21
-3 8 -12 19 -19 23 -8 4 -14 15 -14 22 0 8 -4 15 -10 15 -5 0 -10 5 -10 10 0
21 20 9 26 -15z m56 -30 c-6 -34 -13 -32 -10 4 1 16 5 28 9 26 3 -3 4 -16 1
-30z m-87 -15 c3 -5 1 -10 -4 -10 -6 0 -11 5 -11 10 0 6 2 10 4 10 3 0 8 -4
11 -10z m195 -7 c0 15 3 15 13 5 9 -7 15 -38 16 -77 1 -35 8 -76 15 -90 7 -15
10 -39 6 -56 -6 -30 -6 -29 -12 10 -6 47 -28 104 -45 123 -7 7 -14 18 -14 23
-3 19 -5 24 -13 37 -4 7 -5 21 -1 30 6 16 8 15 21 -2 12 -18 14 -18 14 -3z
m1597 -25 c-3 -7 -5 -2 -5 12 0 14 2 19 5 13 2 -7 2 -19 0 -25z m-1754 -38 c3
-12 0 -20 -8 -20 -16 0 -26 -36 -20 -70 5 -25 5 -25 -6 2 -8 22 -15 26 -41 23
-17 -3 -28 -2 -25 1 3 4 0 13 -8 21 -8 8 -15 22 -15 31 1 16 1 16 11 0 5 -9
15 -16 22 -14 6 1 9 1 5 -1 -14 -8 -9 -23 7 -23 11 0 15 11 15 39 0 29 4 41
18 43 21 5 38 -7 45 -32z m57 0 c0 -13 -1 -13 -10 0 -5 8 -10 22 -10 30 0 13
1 13 10 0 5 -8 10 -22 10 -30z m-3248 -1 c69 -15 165 -62 209 -103 35 -32 36
-32 22 -71 -15 -45 -58 -89 -79 -81 -7 3 -20 -5 -29 -17 -12 -17 -15 -18 -15
-5 0 9 -3 18 -7 21 -5 2 -2 2 5 1 6 -2 12 1 12 6 0 6 -5 10 -11 10 -5 0 -8 4
-5 8 3 5 -17 9 -44 11 -53 2 -69 -10 -48 -37 7 -9 -1 -5 -18 8 l-31 25 26 5
26 6 -30 9 c-16 4 -36 9 -44 9 -8 1 -16 7 -19 15 -3 8 0 11 7 7 6 -4 11 -2 11
3 0 11 -15 14 -65 13 -16 0 -60 8 -97 18 -37 9 -70 15 -72 12 -9 -8 4 -22 20
-22 26 0 146 -51 206 -88 57 -34 128 -119 128 -152 0 -9 -9 -33 -19 -53 -11
-21 -25 -61 -31 -90 -7 -29 -14 -55 -17 -59 -2 -4 -23 14 -46 39 -84 92 -167
160 -252 205 -67 35 -105 49 -105 39 0 -5 37 -27 83 -49 91 -45 203 -134 264
-211 l40 -50 6 -152 c4 -84 5 -155 2 -157 -3 -3 -10 9 -16 26 -6 18 -15 32
-20 32 -5 0 -9 11 -9 25 0 14 -4 25 -9 25 -9 0 -71 96 -71 112 0 6 -9 8 -21 5
-16 -4 -18 -3 -8 9 14 17 -2 19 -21 2 -8 -7 -6 -3 4 9 18 22 18 22 -17 43 -20
12 -39 30 -42 41 -8 24 -56 74 -120 124 -27 21 -68 55 -90 76 -22 20 -68 52
-102 71 l-63 34 29 46 c124 195 365 295 593 247z m3298 -81 c0 -51 -5 -47 -14
10 -4 29 -3 41 4 37 5 -3 10 -25 10 -47z m-83 -25 c-2 -16 -4 -5 -4 22 0 28 2
40 4 28 2 -13 2 -35 0 -50z m1282 -25 c-54 -118 -54 -118 -115 -118 l-53 0 97
98 c53 55 99 98 101 96 2 -2 -12 -36 -30 -76z m-1904 32 c3 -5 2 -10 -4 -10
-5 0 -13 5 -16 10 -3 6 -2 10 4 10 5 0 13 -4 16 -10z m-994 -36 c-8 -19 -17
-31 -19 -26 -4 14 16 62 27 62 4 0 1 -16 -8 -36z m1529 20 c0 -8 -4 -12 -10
-9 -5 3 -10 10 -10 16 0 5 5 9 10 9 6 0 10 -7 10 -16z m-560 -4 c0 -5 -5 -10
-11 -10 -5 0 -7 5 -4 10 3 6 8 10 11 10 2 0 4 -4 4 -10z m1358 -22 c-6 -18
-13 -27 -15 -21 -4 11 13 53 22 53 2 0 -1 -15 -7 -32z m-698 -13 c7 -9 8 -15
2 -15 -5 0 -12 7 -16 15 -3 8 -4 15 -2 15 2 0 9 -7 16 -15z m397 -47 c-2 -13
-4 -3 -4 22 0 25 2 35 4 23 2 -13 2 -33 0 -45z m275 38 c3 -14 0 -27 -7 -29
-7 -3 -10 5 -7 24 5 35 8 36 14 5z m-608 -2 c3 -8 2 -12 -4 -9 -6 3 -10 10
-10 16 0 14 7 11 14 -7z m-1128 -42 c-4 -11 -13 -22 -20 -25 -11 -4 -11 1 1
24 16 33 29 33 19 1z m1154 -3 c0 -16 -4 -28 -9 -25 -8 5 -3 56 5 56 2 0 4
-14 4 -31z m-1797 -14 c13 3 17 -3 15 -26 -2 -29 -12 -37 -22 -20 -4 5 0 11 6
14 12 4 1 11 -39 23 -7 2 -13 8 -13 14 0 7 6 8 18 2 9 -5 25 -8 35 -7z m2477
-20 c-7 -9 -15 -13 -17 -11 -7 7 7 26 19 26 6 0 6 -6 -2 -15z m1244 0 c3 -8 3
-15 0 -15 -3 0 -12 7 -20 15 -13 13 -13 15 -1 15 8 0 17 -7 21 -15z m-1637
-17 c-3 -8 -6 -5 -6 6 -1 11 2 17 5 13 3 -3 4 -12 1 -19z m-3527 -8 c4 0 10
-10 13 -21 6 -21 5 -21 -21 2 -15 13 -29 26 -32 28 -3 2 3 1 13 -2 10 -4 22
-7 27 -7z m5205 0 c3 -6 -1 -7 -9 -4 -18 7 -21 14 -7 14 6 0 13 -4 16 -10z
m-809 -30 c111 -54 243 -250 320 -475 25 -72 27 -94 28 -225 0 -141 -1 -149
-37 -265 -43 -137 -41 -130 -67 -170 -11 -16 -29 -49 -40 -72 -10 -24 -23 -43
-28 -43 -5 0 -15 -12 -23 -27 -8 -16 -24 -43 -36 -61 -12 -18 -19 -40 -16 -49
5 -12 3 -14 -7 -8 -8 5 -19 -1 -32 -16 l-19 -24 6 50 c5 42 3 54 -15 73 -33
35 -72 25 -98 -25 -31 -58 -2 -123 55 -123 l36 0 -38 -30 c-21 -16 -45 -30
-54 -30 -9 -1 -34 -7 -56 -15 -30 -11 -41 -11 -47 -2 -4 7 -8 55 -8 107 0 108
13 155 66 236 28 45 45 60 92 82 l58 26 22 70 c11 39 38 139 58 223 30 123 36
157 27 175 -7 13 -21 53 -33 90 -29 92 -99 196 -154 232 -26 17 -28 22 -24 67
3 27 1 52 -3 55 -10 6 -15 -15 -29 -136 -18 -153 -56 -303 -107 -418 -30 -69
-29 -77 11 -115 28 -27 33 -37 29 -64 -3 -18 -8 -33 -12 -33 -4 0 -13 -16 -21
-35 -7 -19 -17 -32 -22 -29 -4 3 -8 1 -8 -5 0 -5 -6 -16 -12 -23 -37 -38 -40
-63 -35 -230 3 -89 8 -176 11 -193 3 -16 7 -66 10 -110 6 -78 21 -237 32 -323
3 -23 9 -40 15 -37 5 4 9 0 9 -9 0 -8 -5 -16 -12 -18 -8 -3 -8 -9 -2 -19 5 -8
14 -68 20 -134 13 -129 49 -311 66 -332 8 -10 6 -19 -7 -33 -13 -15 -16 -28
-11 -57 4 -23 3 -33 -2 -25 -12 18 -56 -97 -46 -121 4 -12 2 -16 -7 -12 -10 4
-20 -14 -34 -57 -10 -35 -25 -67 -32 -71 -7 -4 -13 -16 -13 -26 0 -10 -9 -28
-20 -41 -11 -13 -21 -30 -22 -39 -2 -31 -4 -36 -18 -61 -7 -14 -13 -27 -12
-30 1 -3 -9 -17 -23 -32 -14 -14 -25 -34 -25 -43 0 -8 -9 -25 -20 -37 -11 -12
-20 -30 -20 -39 0 -10 -10 -27 -21 -38 -14 -13 -19 -26 -15 -38 4 -9 4 -14 0
-10 -9 8 -44 -31 -44 -50 0 -7 -6 -16 -14 -19 -8 -3 -18 -19 -21 -36 -4 -16
-14 -38 -24 -48 -31 -35 -38 -46 -44 -71 -4 -14 -17 -41 -30 -60 -12 -19 -35
-55 -50 -81 -15 -26 -34 -53 -41 -61 -8 -8 -25 -30 -38 -48 -43 -63 -83 -114
-120 -153 -21 -22 -38 -43 -38 -47 0 -17 -141 -143 -178 -159 -22 -10 -42 -22
-45 -26 -3 -5 -30 -10 -61 -12 -50 -3 -56 -1 -56 16 0 11 13 34 30 52 16 18
27 37 23 44 -3 6 -3 8 2 4 15 -14 111 140 121 193 4 19 11 39 16 46 5 7 7 16
4 21 -3 6 1 26 9 46 8 19 15 48 14 63 l0 28 -27 -35 c-35 -45 -152 -162 -152
-152 0 4 -4 3 -8 -3 -22 -30 -113 -70 -206 -89 -90 -19 -254 -21 -290 -5 -40
18 -65 98 -50 156 5 19 11 21 60 16 101 -11 257 18 365 66 61 27 153 135 210
246 l43 85 38 -6 c31 -5 38 -3 38 9 0 19 -66 67 -92 67 -19 0 -105 26 -129 39
-30 17 -236 34 -322 26 l-85 -7 -33 -46 c-41 -57 -134 -157 -173 -184 l-28
-21 26 41 c29 46 71 165 80 227 3 22 10 57 15 78 12 50 -5 57 -61 24 -24 -14
-63 -32 -88 -41 -105 -36 -120 -43 -115 -48 3 -3 -8 -5 -24 -6 -16 0 -43 -8
-59 -16 -17 -9 -52 -23 -79 -32 -26 -8 -62 -22 -78 -29 -24 -11 -40 -12 -75
-3 -25 6 -48 14 -52 17 -4 3 -12 80 -17 171 -18 264 -22 300 -53 460 -21 112
-29 141 -78 315 -47 165 -47 155 -3 207 44 53 62 61 98 42 30 -16 67 -18 108
-8 34 8 34 -1 2 -73 -14 -30 -23 -58 -20 -62 4 -3 20 10 36 29 81 97 81 97
165 104 137 13 172 9 248 -30 129 -65 206 -147 223 -235 13 -72 8 -209 -11
-287 -10 -40 -16 -75 -13 -78 3 -3 19 9 36 28 17 18 44 47 59 63 54 57 132
152 132 159 0 5 14 25 30 46 17 21 30 42 30 46 0 8 71 158 136 287 13 27 24
55 24 62 0 14 -31 25 -76 25 -35 0 -63 40 -41 58 29 23 56 23 87 1 34 -26 52
-19 26 10 -16 18 -16 20 9 39 43 34 64 36 98 12 27 -21 30 -21 22 -4 -19 45
-17 61 10 82 21 17 31 19 52 11 35 -13 41 -4 14 25 -22 23 -22 25 -6 55 18 35
32 43 76 45 41 1 37 19 -5 30 -22 6 -36 16 -36 25 0 42 23 92 53 115 42 33 30
42 -32 21 -55 -18 -49 -9 -82 -139 -13 -53 -81 -152 -125 -183 -51 -36 -107
-65 -169 -87 -53 -18 -83 -21 -255 -21 -107 0 -200 -4 -206 -8 -23 -14 -33 17
-22 63 6 25 15 50 20 56 4 6 51 24 104 39 l96 27 37 -35 c63 -60 80 -67 156
-67 88 0 156 30 208 90 35 41 51 88 59 174 2 23 13 35 48 54 55 30 156 101
190 134 114 109 215 258 222 328 3 23 0 25 -47 28 -27 1 -61 5 -75 8 -24 6
-24 7 -5 14 15 5 27 30 43 84 22 72 51 116 77 116 7 0 37 18 69 40 31 22 59
40 62 40 7 0 -6 -78 -33 -184 -13 -54 -22 -101 -19 -103 9 -9 42 8 81 43 22
20 41 31 43 26 1 -5 -6 -35 -17 -66 -22 -62 -13 -81 23 -47 31 29 35 27 25
-16 -10 -46 4 -67 25 -38 8 11 26 34 40 50 37 42 87 146 87 181 0 16 -4 63
-10 104 -10 77 -8 420 2 476 43 226 203 336 373 254z m-526 -7 c-1 -18 -18
-35 -24 -24 -4 6 -4 16 -1 21 7 12 25 13 25 3z m-4525 -34 c114 -56 256 -208
349 -374 38 -67 162 -344 191 -425 26 -73 42 -160 29 -160 -9 0 -94 165 -169
325 -39 84 -51 105 -127 220 -118 178 -327 358 -396 342 -13 -3 -9 -7 13 -17
60 -26 95 -45 95 -52 0 -3 8 -9 18 -12 10 -3 48 -34 84 -69 108 -102 159 -188
72 -122 -20 16 -34 22 -30 14 3 -8 9 -22 12 -31 4 -10 10 -18 15 -18 5 0 9 -6
9 -12 0 -7 13 -28 29 -47 16 -19 49 -69 72 -113 24 -43 47 -78 51 -78 5 0 7
-3 6 -7 -1 -5 4 -19 9 -33 34 -78 73 -182 73 -190 0 -28 -23 -1 -65 78 -52 95
-103 172 -122 185 -7 4 -13 13 -13 19 0 5 -12 26 -28 45 -38 48 -182 203 -182
196 0 -3 -11 6 -25 21 -29 31 -145 100 -145 85 0 -5 -5 -9 -11 -9 -5 0 -7 5
-4 10 4 6 -9 10 -31 10 -29 0 -43 -7 -66 -32 -15 -17 -29 -27 -29 -22 -1 5 -5
-7 -10 -26 -5 -24 -7 -7 -5 55 4 100 22 149 62 167 13 6 24 14 24 18 0 4 27
13 61 19 46 9 58 15 50 24 -17 22 8 42 58 46 7 0 42 -13 76 -30z m2645 11 c0
-5 -5 -10 -11 -10 -5 0 -7 5 -4 10 3 6 8 10 11 10 2 0 4 -4 4 -10z m1836 -30
c9 0 12 -5 9 -10 -4 -6 -11 -8 -16 -5 -5 3 -6 0 -4 -8 3 -7 -4 -22 -16 -33
-22 -19 -22 -19 -10 3 6 12 11 34 12 50 0 15 3 22 6 16 2 -7 11 -13 19 -13z
m-2516 -53 c0 -4 -6 -2 -14 5 -8 7 -12 17 -9 22 5 8 23 -12 23 -27z m177 1
c-3 -8 -6 -5 -6 6 -1 11 2 17 5 13 3 -3 4 -12 1 -19z m2265 -50 c-6 -6 -7 0
-4 19 5 21 7 23 10 9 2 -10 0 -22 -6 -28z m-2407 22 c3 -5 1 -10 -4 -10 -6 0
-11 5 -11 10 0 6 2 10 4 10 3 0 8 -4 11 -10z m2465 -50 c0 -5 -5 -10 -11 -10
-5 0 -7 5 -4 10 3 6 8 10 11 10 2 0 4 -4 4 -10z m-533 -42 c-3 -7 -5 -2 -5 12
0 14 2 19 5 13 2 -7 2 -19 0 -25z m126 -8 c-3 -11 -7 -20 -9 -20 -2 0 -4 9 -4
20 0 11 4 20 9 20 5 0 7 -9 4 -20z m54 -52 c-3 -8 -6 -5 -6 6 -1 11 2 17 5 13
3 -3 4 -12 1 -19z m53 6 c0 -8 -19 -13 -24 -6 -3 5 1 9 9 9 8 0 15 -2 15 -3z
m-84 -62 c-15 -15 -15 -15 -4 10 7 15 15 23 17 17 2 -6 -4 -18 -13 -27z m560
-149 c2 -76 8 -186 14 -245 l12 -107 -31 -64 c-45 -94 -94 -131 -57 -42 20 47
8 51 -32 13 -39 -37 -38 -42 -11 64 7 27 10 51 6 54 -3 4 -32 -19 -64 -50 -60
-58 -78 -68 -69 -38 3 9 15 51 25 92 11 41 24 76 30 78 6 2 8 16 5 31 -4 18 0
32 10 40 10 8 16 9 16 3 0 -6 -4 -14 -10 -17 -5 -3 -10 -13 -10 -22 0 -13 3
-13 15 -3 8 7 15 21 15 31 0 11 7 19 15 19 10 0 15 10 15 28 0 18 3 23 9 14 6
-11 10 -11 19 0 5 7 12 20 14 28 2 8 5 17 8 20 27 26 51 90 33 90 -3 0 -29
-24 -57 -52 -88 -91 -154 -144 -233 -187 -42 -22 -78 -39 -80 -37 -8 7 27 65
44 75 10 6 14 11 10 11 -5 0 -1 7 8 16 9 9 19 14 22 10 3 -3 13 3 20 14 8 11
19 18 24 15 5 -4 12 1 15 10 4 9 13 14 20 11 9 -3 11 0 7 11 -4 10 -2 14 4 10
6 -4 16 0 23 8 7 8 19 15 26 15 8 0 14 6 14 14 0 8 7 17 16 20 8 3 12 11 8 17
-5 8 -3 9 5 5 8 -5 14 -1 17 11 3 10 18 24 34 31 19 9 31 23 35 43 4 16 11 27
16 23 5 -3 9 5 9 17 0 12 3 20 6 16 3 -3 8 -68 10 -144z m-251 127 c3 -5 -1
-10 -9 -10 -9 0 -16 5 -16 10 0 6 4 10 9 10 6 0 13 -4 16 -10z m145 -40 c0 -5
-5 -10 -11 -10 -5 0 -7 5 -4 10 3 6 8 10 11 10 2 0 4 -4 4 -10z m-4863 -62
c-3 -7 -5 -2 -5 12 0 14 2 19 5 13 2 -7 2 -19 0 -25z m4531 -42 c-7 -8 -15
-12 -17 -11 -5 6 10 25 20 25 5 0 4 -6 -3 -14z m-168 -66 c0 -5 -12 -10 -27
-9 l-28 1 25 8 c14 4 26 8 28 9 1 1 2 -3 2 -9z m1452 -77 c-24 -3 -32 -8 -28
-19 3 -8 -1 -14 -9 -14 -18 0 -20 26 -2 33 6 3 26 5 42 5 29 -1 29 -1 -3 -5z
m-1556 -55 c-18 -107 -25 -137 -41 -188 -42 -131 -46 -138 -90 -144 -91 -12
-185 -18 -185 -11 0 7 13 25 80 110 22 27 40 53 40 57 0 4 28 48 61 98 42 63
72 96 93 106 46 20 49 18 42 -28z m1720 -64 c-9 -8 -21 -12 -28 -8 -8 5 -6 10
8 15 31 12 37 10 20 -7z m144 1 c-14 -8 -32 -14 -40 -14 -9 0 -4 6 10 14 14 8
32 14 40 14 9 0 4 -6 -10 -14z m-327 -2 c-7 -2 -19 -2 -25 0 -7 3 -2 5 12 5
14 0 19 -2 13 -5z m7 -17 c0 -2 -7 -9 -15 -16 -12 -10 -15 -10 -15 4 0 9 7 16
15 16 8 0 15 -2 15 -4z m194 -5 c8 -12 -38 -23 -61 -14 -17 7 -4 13 49 22 4 0
9 -3 12 -8z m-134 -11 c0 -5 -4 -10 -10 -10 -5 0 -10 5 -10 10 0 6 5 10 10 10
6 0 10 -4 10 -10z m280 -10 c0 -5 -8 -10 -17 -10 -15 0 -16 2 -3 10 19 12 20
12 20 0z m275 -19 c-3 -6 -12 -11 -20 -11 -8 0 -19 -8 -24 -17 -6 -10 -11 -13
-11 -6 0 6 12 21 27 32 26 21 41 22 28 2z m-345 -11 c0 -5 -8 -10 -17 -10 -15
0 -16 2 -3 10 19 12 20 12 20 0z m220 -5 c-14 -17 -60 -20 -60 -4 0 7 10 9 25
7 14 -3 28 -1 31 3 3 5 8 9 11 9 3 0 0 -7 -7 -15z m-470 -16 c0 -6 -9 -9 -20
-6 -10 3 -24 -1 -31 -9 -6 -8 -17 -14 -23 -14 -6 0 -3 7 7 14 14 11 15 15 5
19 -7 3 4 6 25 6 21 1 37 -4 37 -10z m127 5 c-3 -3 -12 -4 -19 -1 -8 3 -5 6 6
6 11 1 17 -2 13 -5z m123 -13 c22 -4 36 -13 38 -24 3 -16 -1 -18 -31 -13 -26
4 -37 2 -41 -10 -7 -19 1 -34 17 -34 7 0 6 4 -3 10 -8 5 -11 13 -6 17 5 4 11
2 13 -4 3 -7 12 -13 21 -13 27 0 6 -10 -32 -15 -33 -4 -36 -3 -36 20 0 16 -6
25 -16 25 -8 0 -12 5 -9 10 3 6 0 10 -7 10 -9 0 -9 3 2 10 10 6 11 10 3 10 -7
0 -13 5 -13 11 0 8 11 9 33 4 17 -4 48 -10 67 -14z m-207 2 c-7 -2 -19 -2 -25
0 -7 3 -2 5 12 5 14 0 19 -2 13 -5z m445 -30 c-3 -17 -67 -46 -78 -36 -8 7 24
23 49 23 16 0 21 4 17 15 -3 8 -1 15 5 15 6 0 9 -8 7 -17z m-468 3 c0 -2 -7
-7 -16 -10 -8 -3 -12 -2 -9 4 6 10 25 14 25 6z m-103 -53 c-3 -10 -5 -4 -5 12
0 17 2 24 5 18 2 -7 2 -21 0 -30z m118 27 c-3 -5 -11 -10 -16 -10 -6 0 -7 5
-4 10 3 6 11 10 16 10 6 0 7 -4 4 -10z m-25 -34 c0 -2 3 -11 6 -20 5 -12 0
-16 -20 -16 -19 0 -26 5 -26 20 0 13 7 20 20 20 11 0 20 -2 20 -4z m153 -23
c-7 -2 -19 -2 -25 0 -7 3 -2 5 12 5 14 0 19 -2 13 -5z m174 1 c-3 -3 -12 -4
-19 -1 -8 3 -5 6 6 6 11 1 17 -2 13 -5z m-1667 -26 c-19 -5 -64 -29 -100 -52
-96 -63 -230 -113 -363 -137 -51 -8 -77 -23 -77 -43 0 -19 -87 -146 -146 -213
-30 -35 -76 -75 -102 -89 -26 -15 -83 -51 -128 -80 -44 -30 -85 -54 -90 -54
-21 0 -83 -36 -120 -69 -21 -19 -60 -50 -87 -68 -41 -27 -58 -33 -105 -33
l-55 0 42 30 c23 17 67 57 99 90 47 50 71 65 137 91 81 31 154 79 235 155 25
23 63 57 84 76 57 48 129 147 173 238 42 89 37 86 168 94 143 9 384 52 403 71
3 3 19 5 36 4 l31 -1 -35 -10z m1564 -3 c-5 -11 -2 -13 10 -9 9 3 13 10 10 15
-3 5 0 9 5 9 14 0 14 -17 0 -25 -6 -4 -14 -17 -19 -29 l-9 -21 0 22 c-1 21 -5
22 -48 18 -45 -4 -45 -4 -10 4 21 4 43 13 50 20 15 15 18 14 11 -4z m246 -15
c0 -5 -4 -10 -10 -10 -5 0 -10 5 -10 10 0 6 5 10 10 10 6 0 10 -4 10 -10z
m-53 -35 c-7 -14 -16 -25 -20 -25 -5 0 -6 3 -4 8 2 4 7 15 10 25 4 9 11 17 16
17 5 0 4 -11 -2 -25z m-45 -33 c-7 -2 -9 -9 -6 -14 4 -7 2 -8 -4 -4 -6 4 -9
13 -6 21 4 8 11 12 17 8 8 -5 7 -8 -1 -11z m-1868 -49 c-9 -9 -20 -26 -24 -39
-5 -12 -26 -35 -47 -51 -21 -15 -39 -31 -41 -35 -2 -5 -10 -8 -17 -8 -8 0 -18
-6 -22 -13 -16 -27 -125 -71 -179 -73 -28 -1 -61 -5 -73 -9 -30 -9 -26 10 17
79 l37 59 90 22 c101 26 185 54 230 77 35 19 52 13 29 -9z m1821 7 c-3 -5 -14
-10 -23 -9 -14 0 -13 2 3 9 27 11 27 11 20 0z m-42 -27 c-7 -2 -19 -2 -25 0
-7 3 -2 5 12 5 14 0 19 -2 13 -5z m-298 -13 c3 -5 -1 -10 -10 -10 -9 0 -13 5
-10 10 3 6 8 10 10 10 2 0 7 -4 10 -10z m173 -29 c-5 -2 -44 1 -86 5 l-77 9
75 5 c44 3 80 1 87 -5 6 -6 7 -11 1 -14z m-2268 -68 c0 -34 -159 -201 -179
-189 -9 6 4 62 31 127 14 31 21 37 72 48 30 7 58 17 61 22 9 14 15 11 15 -8z
m2710 3 c0 -8 -11 -17 -24 -20 -13 -3 -32 -9 -43 -12 -17 -5 -17 -4 1 10 11 9
16 16 10 16 -5 0 -2 5 6 10 22 14 50 12 50 -4z m47 -2 c-3 -3 -12 -4 -19 -1
-8 3 -5 6 6 6 11 1 17 -2 13 -5z m-3101 -24 c21 0 37 -6 40 -15 9 -22 -40
-219 -67 -267 -5 -10 -9 -24 -9 -32 0 -13 -61 -56 -80 -56 -5 0 -25 16 -45 37
-46 47 -46 83 1 188 20 44 40 96 46 115 13 43 24 51 55 39 14 -5 40 -9 59 -9z
m3184 -10 c0 -5 -7 -10 -15 -10 -8 0 -15 5 -15 10 0 6 7 10 15 10 8 0 15 -4
15 -10z m-228 -23 c-7 -8 -10 -17 -7 -21 3 -3 0 -2 -7 3 -8 8 -8 14 2 26 7 8
15 13 18 10 3 -2 0 -11 -6 -18z m-934 -34 c2 -33 -1 -44 -19 -57 -21 -14 -24
-14 -42 1 -34 31 -1 109 43 101 10 -2 16 -17 18 -45z m1238 32 c4 -8 16 -16
28 -16 16 -1 17 -2 4 -6 -10 -2 -30 5 -44 16 -20 16 -22 21 -10 21 9 0 19 -7
22 -15z m139 -85 c3 -5 1 -10 -4 -10 -6 0 -11 5 -11 10 0 6 2 10 4 10 3 0 8
-4 11 -10z m-538 -37 c-3 -10 -5 -4 -5 12 0 17 2 24 5 18 2 -7 2 -21 0 -30z
m64 -32 c5 -22 5 -50 0 -63 -7 -19 -8 -16 -8 17 1 22 -3 53 -7 70 -4 16 -5 27
-1 23 4 -3 11 -25 16 -47z m-83 17 c7 -7 13 -35 14 -62 l1 -51 7 50 c4 28 6
-58 5 -190 -3 -226 -15 -345 -37 -345 -15 0 -20 74 -9 150 7 44 9 90 5 102 -5
17 -3 20 14 16 20 -5 20 -2 17 76 -6 138 -16 206 -31 206 -8 0 -14 -9 -14 -21
0 -11 -4 -18 -9 -14 -6 3 -5 21 4 44 7 22 11 42 8 45 -4 3 -2 6 3 6 6 0 15 -5
22 -12z m679 -44 c-3 -3 -12 -4 -19 -1 -8 3 -5 6 6 6 11 1 17 -2 13 -5z
m-2747 -21 c0 -24 -10 -38 -37 -51 -50 -27 -78 22 -28 50 39 22 65 23 65 1z
m2315 -44 c0 -8 9 -17 20 -20 12 -4 2 -6 -24 -6 -23 1 -38 3 -32 5 6 2 9 8 5
13 -7 13 6 31 19 26 7 -2 12 -10 12 -18z m-282 -46 c-7 -64 -32 -119 -34 -73
0 22 -1 23 -8 6 -13 -34 -21 -1 -10 40 9 30 44 83 56 84 1 0 -1 -26 -4 -57z
m774 25 c-3 -8 -6 -5 -6 6 -1 11 2 17 5 13 3 -3 4 -12 1 -19z m-2889 -10 c18
-18 14 -30 -8 -23 -22 7 -26 -5 -8 -23 9 -9 8 -12 -4 -12 -19 0 -31 26 -23 51
7 22 25 25 43 7z m2296 -13 c-4 -8 -11 -15 -16 -15 -6 0 -5 6 2 15 7 8 14 15
16 15 2 0 1 -7 -2 -15z m-42 -14 c9 -10 12 -24 8 -31 -5 -8 -11 -1 -18 19 -13
36 -12 37 10 12z m678 9 c0 -5 -4 -10 -10 -10 -5 0 -10 5 -10 10 0 6 5 10 10
10 6 0 10 -4 10 -10z m-3120 -15 c0 -4 -7 -19 -15 -35 -18 -35 -40 -41 -29 -8
6 19 5 21 -8 11 -8 -7 -18 -10 -21 -6 -13 12 -7 32 11 36 26 7 62 8 62 2z
m2424 -44 c2 -23 2 -40 -2 -37 -3 4 -7 25 -10 49 -5 55 5 45 12 -12z m197 26
c100 -67 142 -304 103 -582 -9 -60 -18 -128 -21 -150 -8 -63 -19 -62 -52 2
-34 69 -74 106 -149 141 l-53 24 7 67 c3 36 11 77 16 91 14 35 24 340 11 340
-15 0 -3 52 16 72 23 25 82 22 122 -5z m75 -4 c-7 -7 -26 7 -26 19 0 6 6 6 15
-2 9 -7 13 -15 11 -17z m-2556 -25 c0 -5 -6 -8 -14 -8 -16 0 -25 19 -18 38 3
9 8 8 18 -5 7 -10 14 -21 14 -25z m-3779 10 c10 -13 18 -29 19 -35 0 -7 5 -13
10 -13 6 0 10 -8 10 -18 0 -15 -18 -21 -104 -35 -112 -19 -151 -15 -176 16
-15 18 -15 23 -2 52 18 38 58 52 160 54 55 1 66 -2 83 -21z m3669 -20 c0 -21
-18 -34 -31 -21 -5 5 -4 19 3 35 13 27 28 20 28 -14z m60 -2 c0 -7 -9 -16 -20
-19 -15 -4 -20 0 -20 14 0 12 7 19 20 19 11 0 20 -6 20 -14z m2657 -28 c-3 -8
-6 -5 -6 6 -1 11 2 17 5 13 3 -3 4 -12 1 -19z m-495 -20 c7 -18 0 -239 -7
-247 -3 -3 -10 1 -15 9 -7 11 -10 5 -9 -20 0 -19 3 -29 6 -22 6 14 43 16 43 2
0 -5 7 -10 15 -10 8 0 15 -9 15 -20 0 -10 10 -29 23 -41 20 -20 20 -21 2 -15
-16 6 -18 5 -7 -5 17 -18 15 -34 -3 -19 -8 7 -15 23 -15 36 0 15 -6 24 -16 24
-13 0 -15 -14 -14 -87 1 -49 -3 -108 -8 -133 l-9 -45 -3 40 c-3 38 -3 39 -7 7
-2 -18 -9 -30 -14 -27 -5 4 -9 -2 -9 -12 0 -21 20 -56 20 -35 0 6 6 12 13 12
16 0 18 -32 3 -42 -8 -6 -8 -10 0 -15 15 -11 24 -74 13 -94 -5 -9 -13 -41 -18
-70 -17 -98 -23 -121 -31 -143 -8 -21 -8 -21 -18 4 -10 23 -11 22 -11 -17 -1
-38 -4 -42 -28 -45 -16 -2 -26 -7 -23 -13 8 -15 43 -17 53 -3 6 9 7 7 3 -5 -3
-10 -6 -25 -6 -33 0 -9 -4 -13 -9 -10 -4 3 -6 -5 -4 -17 2 -12 -3 -31 -12 -42
-9 -11 -14 -14 -10 -8 4 9 1 11 -9 7 -17 -7 -22 -54 -6 -54 6 0 10 -9 10 -20
0 -11 -4 -20 -9 -20 -5 0 -12 -17 -16 -38 -3 -20 -10 -44 -15 -52 -8 -13 -11
-12 -23 4 -18 24 -44 16 -57 -18 -5 -13 -14 -27 -20 -31 -5 -3 -19 -23 -29
-43 -15 -29 -16 -39 -7 -48 19 -18 56 -27 56 -14 0 6 5 8 10 5 6 -4 10 6 10
23 0 34 31 103 38 83 2 -7 -1 -18 -7 -24 -6 -6 -11 -22 -11 -35 0 -28 -17 -64
-36 -75 -8 -4 -14 -25 -15 -45 0 -20 -3 -31 -6 -24 -2 6 -9 10 -14 6 -5 -3 -9
4 -9 16 0 12 -4 18 -10 15 -5 -3 -10 -2 -10 3 0 6 -9 8 -20 5 -11 -3 -26 -3
-35 0 -12 5 -12 12 2 51 9 25 21 42 26 39 5 -3 8 3 6 13 -4 29 12 94 23 94 5
0 6 5 3 10 -3 6 -3 16 2 23 4 6 9 20 10 30 2 10 10 25 18 33 8 9 15 22 15 30
0 8 20 90 44 182 25 92 54 214 66 271 11 58 27 112 35 121 9 10 14 34 13 61
-1 24 2 55 6 68 5 15 4 21 -2 17 -5 -3 -4 20 4 57 7 34 21 149 30 255 16 175
24 214 36 180z m618 -52 c0 -9 -30 -14 -35 -6 -4 6 3 10 14 10 12 0 21 -2 21
-4z m83 -15 c15 -8 27 -18 27 -23 0 -5 5 -6 12 -2 7 4 8 3 4 -5 -6 -8 0 -10
21 -6 23 4 24 4 8 -4 -11 -5 -14 -10 -7 -10 6 -1 12 -5 12 -11 0 -15 -19 -8
-50 20 -15 14 -38 33 -51 43 -26 20 -19 19 24 -2z m-188 -21 c3 -5 1 -10 -4
-10 -6 0 -11 5 -11 10 0 6 2 10 4 10 3 0 8 -4 11 -10z m20 -29 c-3 -6 -11 -11
-16 -11 -5 0 -4 6 3 14 14 16 24 13 13 -3z m-3537 -35 c-36 -32 -121 -51 -155
-34 -38 19 -33 32 14 39 24 3 46 8 49 12 4 4 32 7 63 7 l56 -1 -27 -23z m818
-30 c20 -20 18 -26 -10 -26 -31 0 -86 20 -86 31 0 15 80 10 96 -5z m1779 -36
c3 -5 19 -10 36 -10 16 0 29 -4 29 -10 0 -5 9 -10 20 -10 27 0 67 -26 108 -70
41 -44 47 -68 33 -127 -6 -27 -15 -77 -21 -113 -6 -36 -15 -83 -20 -105 -60
-260 -65 -278 -122 -460 -43 -138 -67 -184 -69 -130 -1 34 -3 48 -19 114 -10
43 -30 188 -49 356 -14 119 -7 474 9 520 8 22 19 43 25 47 14 11 33 10 40 -2z
m-5655 -69 c0 -11 76 -61 94 -61 8 0 34 11 57 25 112 64 208 -5 130 -92 -23
-27 -36 -33 -68 -33 -22 0 -53 7 -70 15 -32 16 -93 11 -93 -7 0 -11 -81 -6
-155 9 -37 8 -40 11 -43 43 -3 45 2 52 63 84 50 26 85 33 85 17z m1963 -90
c57 -6 59 -7 72 -43 33 -98 190 -149 301 -99 55 25 98 81 103 134 2 13 15 8
44 -17 27 -24 28 -26 13 -53 -54 -97 -202 -173 -340 -173 -116 0 -211 40 -299
124 -107 104 -110 154 -8 141 31 -5 82 -11 114 -14z m450 5 c6 -16 -22 -46
-44 -46 -18 0 -39 20 -39 36 0 23 75 32 83 10z m-283 -26 c0 -5 -2 -10 -4 -10
-3 0 -8 5 -11 10 -3 6 -1 10 4 10 6 0 11 -4 11 -10z m35 1 c3 -5 0 -13 -6 -17
-7 -4 -9 -3 -5 4 3 5 0 13 -6 15 -9 4 -10 6 -1 6 6 1 14 -3 18 -8z m42 -48 c2
-6 -1 -14 -6 -18 -6 -3 -11 -1 -11 5 0 7 -8 9 -22 4 -20 -6 -21 -5 -10 9 14
17 44 17 49 0z m117 11 c20 -8 21 -24 2 -24 -8 0 -16 7 -20 15 -6 17 -4 18 18
9z m-82 -11 c-10 -4 -10 -8 -1 -19 9 -11 8 -14 -5 -14 -9 0 -16 6 -16 13 0 17
10 27 24 26 6 0 5 -3 -2 -6z m52 -9 c9 -22 8 -24 -9 -24 -8 0 -15 9 -15 20 0
24 15 27 24 4z m3835 -36 c-12 -82 -37 -186 -38 -158 -1 14 6 52 14 85 9 32
15 66 14 74 -3 30 1 51 9 51 5 0 5 -24 1 -52z m-5318 -34 c14 -17 16 -69 5
-119 -4 -16 -9 -40 -12 -52 -4 -19 -11 -23 -43 -23 -35 0 -38 2 -33 25 2 14 7
25 11 25 4 0 5 29 3 65 -5 69 6 95 38 95 10 0 24 -7 31 -16z m5731 -226 c-7
-7 -12 -8 -12 -2 0 14 12 26 19 19 2 -3 -1 -11 -7 -17z m-6283 -47 c19 -4 38
-14 43 -24 4 -9 12 -25 17 -34 6 -13 18 -17 44 -15 29 3 42 -2 63 -23 14 -14
24 -28 21 -31 -11 -11 -67 -22 -67 -13 0 5 -11 9 -24 9 -13 0 -27 7 -30 16 -3
8 -10 13 -15 10 -5 -4 -11 -1 -13 5 -5 14 -66 15 -141 2 -56 -9 -58 -9 -63 14
-4 12 -3 34 0 48 5 20 3 25 -14 25 -11 0 -20 7 -20 16 0 13 11 14 83 9 45 -4
97 -10 116 -14z m2032 -106 c-3 -55 13 -108 48 -157 67 -91 352 -388 373 -388
4 0 8 -5 8 -11 0 -29 -137 16 -193 63 -15 13 -74 61 -130 108 -168 139 -250
211 -288 254 -42 47 -101 154 -93 167 3 5 19 2 37 -7 19 -10 58 -17 102 -18
57 -1 76 3 100 21 17 12 32 19 34 17 3 -3 4 -25 2 -49z m-460 -32 c13 -16 12
-17 -3 -4 -10 7 -18 15 -18 17 0 8 8 3 21 -13z m10 -43 c6 0 7 5 4 10 -3 6 -1
10 4 10 13 0 13 -3 5 -24 -5 -12 -9 -13 -24 -4 -10 7 -16 17 -13 22 4 6 8 5
11 -2 2 -7 8 -12 13 -12z m4176 -42 c-3 -8 -6 -5 -6 6 -1 11 2 17 5 13 3 -3 4
-12 1 -19z m-4110 -40 c-3 -7 -5 -2 -5 12 0 14 2 19 5 13 2 -7 2 -19 0 -25z
m56 -90 c-6 -96 -11 -101 -12 -15 0 42 3 77 7 77 5 0 7 -28 5 -62z m-30 -144
c4 -89 10 -170 14 -180 7 -18 6 -18 -11 -1 -15 14 -18 35 -18 122 0 58 -4 102
-9 99 -5 -3 -9 29 -9 71 0 64 2 74 14 63 9 -10 15 -59 19 -174z m3514 114 c-3
-8 -6 -5 -6 6 -1 11 2 17 5 13 3 -3 4 -12 1 -19z m-260 -110 c-3 -8 -6 -5 -6
6 -1 11 2 17 5 13 3 -3 4 -12 1 -19z m-3120 -40 c-3 -8 -6 -5 -6 6 -1 11 2 17
5 13 3 -3 4 -12 1 -19z m3350 -30 c-3 -7 -5 -2 -5 12 0 14 2 19 5 13 2 -7 2
-19 0 -25z m-3350 -50 c-2 -13 -4 -5 -4 17 -1 22 1 32 4 23 2 -10 2 -28 0 -40z
m-53 27 c3 -8 1 -15 -4 -15 -6 0 -10 7 -10 15 0 8 2 15 4 15 2 0 6 -7 10 -15z
m-27 -42 c-3 -10 -5 -4 -5 12 0 17 2 24 5 18 2 -7 2 -21 0 -30z m3301 15 c1
-7 6 -42 12 -78 16 -116 18 -133 28 -252 5 -64 13 -121 17 -128 4 -6 9 -33 12
-58 3 -26 8 -48 13 -50 12 -4 -1 -44 -42 -132 -20 -41 -39 -90 -42 -107 -10
-43 -24 -50 -32 -16 -4 15 -10 30 -14 33 -14 10 -70 119 -70 137 0 10 -7 27
-15 37 -9 11 -15 41 -15 68 0 69 49 386 66 427 8 18 14 40 14 48 0 32 29 83
48 83 10 0 19 -6 20 -12z m139 -70 c-2 -13 -4 -5 -4 17 -1 22 1 32 4 23 2 -10
2 -28 0 -40z m-3457 -28 c0 -5 -4 -10 -9 -10 -12 0 -20 -49 -10 -56 12 -7 11
-74 0 -74 -6 0 -7 16 -4 35 4 23 2 35 -6 35 -15 0 -14 35 1 60 14 21 28 26 28
10z m2867 -32 c-3 -8 -6 -5 -6 6 -1 11 2 17 5 13 3 -3 4 -12 1 -19z m911 -28
c19 0 23 -3 13 -9 -7 -5 -10 -14 -7 -20 4 -6 3 -11 -3 -11 -5 0 -13 5 -16 10
-3 6 -15 10 -26 10 -10 0 -19 5 -19 10 0 6 4 10 10 10 5 0 7 8 4 18 -5 16 -5
16 6 0 6 -10 23 -18 38 -18z m-1728 -8 c0 -19 -49 -52 -100 -68 -30 -9 -81
-25 -112 -36 -76 -27 -92 -19 -37 20 24 17 59 44 78 60 30 25 43 29 103 31 37
1 68 -2 68 -7z m130 -7 c0 -26 -71 -153 -117 -210 -67 -82 -147 -120 -310
-144 -105 -16 -154 -14 -187 8 -26 18 -55 54 -56 72 0 15 54 19 86 7 41 -15
202 2 290 31 65 22 148 76 165 108 7 13 16 23 21 23 4 0 8 7 8 15 0 9 16 32
35 52 19 20 35 39 35 43 0 4 7 7 15 7 8 0 15 -6 15 -12z m1287 -57 c-3 -8 -6
-5 -6 6 -1 11 2 17 5 13 3 -3 4 -12 1 -19z m-3390 -50 c-2 -13 -4 -5 -4 17 -1
22 1 32 4 23 2 -10 2 -28 0 -40z m3734 27 c14 9 11 -5 -6 -21 -13 -14 -15 -12
-14 18 1 18 3 25 6 15 2 -9 9 -15 14 -12z m-3803 -90 c0 -34 -1 -36 -8 -15 -4
14 -8 43 -8 65 0 34 1 36 8 15 4 -14 8 -43 8 -65z m3693 9 c-10 -23 -9 -24 23
-24 29 0 34 -3 32 -24 -1 -20 -4 -22 -19 -15 -27 15 -40 1 -32 -37 3 -21 2
-34 -4 -34 -6 0 -8 -12 -5 -29 6 -28 -20 -91 -37 -91 -4 0 -10 -18 -14 -41 -5
-28 -13 -43 -28 -49 -26 -9 -45 -1 -26 11 11 6 10 11 -6 23 -30 22 -11 30 22
10 15 -10 25 -14 21 -9 -4 4 -3 14 3 21 12 15 3 70 -12 80 -6 3 -16 -2 -23
-11 -12 -17 -13 -17 -19 0 -8 19 12 95 24 95 4 0 4 -13 -1 -30 -7 -26 -6 -30
11 -30 21 0 27 30 7 30 -8 0 -6 5 4 11 9 5 15 16 12 24 -4 8 -10 12 -15 9 -13
-8 -10 17 5 44 12 22 14 23 29 7 10 -9 17 -28 18 -43 l1 -27 9 30 c7 23 5 33
-7 42 -13 10 -13 15 -1 46 8 19 13 47 10 63 l-4 29 17 -29 c12 -22 14 -34 5
-52z m80 -5 l-10 -24 0 26 c-1 14 2 29 6 33 12 12 14 -9 4 -35z m-3754 -1 c-3
-7 -5 -2 -5 12 0 14 2 19 5 13 2 -7 2 -19 0 -25z m1853 -28 c0 -14 -36 -27
-95 -32 -27 -3 -41 -3 -30 -1 11 3 25 9 32 15 26 21 93 34 93 18z m30 0 c0 -5
-2 -10 -4 -10 -3 0 -8 5 -11 10 -3 6 -1 10 4 10 6 0 11 -4 11 -10z m-1876 -95
l5 -50 -14 40 c-16 47 -19 83 -6 70 5 -6 12 -32 15 -60z m3699 4 c-9 -34 -19
-29 -15 8 3 21 7 30 12 23 4 -7 5 -21 3 -31z m-4631 -6 c12 -14 17 -55 21
-173 l6 -156 -32 -17 c-29 -16 -43 -17 -120 -7 -166 20 -176 34 -145 195 10
55 20 99 21 100 1 0 12 9 24 19 17 14 121 42 204 55 3 1 13 -7 21 -16z m1015
-40 c-3 -10 -5 -2 -5 17 0 19 2 27 5 18 2 -10 2 -26 0 -35z m-57 -54 c0 -17
-4 -28 -10 -24 -5 3 -10 17 -10 31 0 13 5 24 10 24 6 0 10 -14 10 -31z m3514
-14 c3 -8 -1 -20 -8 -27 -7 -7 -11 -19 -10 -26 1 -7 0 -8 -3 -2 -2 5 -8 8 -12
5 -4 -2 -3 11 3 30 12 38 21 44 30 20z m-3497 -17 c-3 -8 -6 -5 -6 6 -1 11 2
17 5 13 3 -3 4 -12 1 -19z m3546 -25 c-3 -7 -9 -13 -13 -13 -4 0 -10 6 -13 13
-3 7 3 13 13 13 10 0 16 -6 13 -13z m-3529 -69 c8 -22 7 -34 -3 -34 -5 0 -11
11 -13 25 -6 28 6 34 16 9z m3416 -11 c0 -14 -15 -29 -27 -28 -7 0 -12 5 -10
10 1 6 5 9 10 8 4 -2 7 2 7 7 0 6 5 10 10 10 6 0 10 -3 10 -7z m110 -3 c0 -6
-7 -13 -15 -16 -8 -4 -15 -14 -16 -23 0 -9 -7 -34 -14 -56 l-14 -40 2 37 c2
20 -1 34 -5 32 -18 -11 -6 13 17 35 14 13 25 27 25 32 0 5 5 9 10 9 6 0 10 -5
10 -10z m-3457 -20 c3 -11 1 -18 -4 -14 -5 3 -9 12 -9 20 0 20 7 17 13 -6z
m-48 -29 c-3 -6 -11 -8 -17 -5 -6 4 -5 9 3 15 16 10 23 4 14 -10z m21 -97 c-3
-8 -1 -14 4 -14 6 0 10 -8 10 -17 -1 -16 -2 -16 -15 1 -17 23 -20 60 -4 51 6
-4 8 -13 5 -21z m3441 -36 c-3 -8 -6 -5 -6 6 -1 11 2 17 5 13 3 -3 4 -12 1
-19z m-83 -13 c11 -8 15 -15 9 -15 -7 0 -13 -8 -15 -17 -3 -13 -7 -8 -15 15
-13 35 -8 39 21 17z m-189 -35 c3 -5 1 -10 -4 -10 -6 0 -11 5 -11 10 0 6 2 10
4 10 3 0 8 -4 11 -10z m196 -43 c-8 -8 -11 -7 -11 4 0 20 13 34 18 19 3 -7 -1
-17 -7 -23z m114 -33 c9 3 12 0 8 -10 -4 -10 2 -17 14 -20 16 -5 20 -13 17
-37 -1 -18 -3 -39 -4 -47 0 -13 -1 -13 -10 0 -5 8 -7 23 -4 32 9 29 -14 60
-39 54 -12 -3 -17 -3 -10 0 7 3 11 17 9 32 -2 15 -1 19 1 9 3 -11 10 -16 18
-13z m-3431 10 c3 -8 2 -12 -4 -9 -6 3 -10 10 -10 16 0 14 7 11 14 -7z m3369
-45 c-4 -16 -8 -17 -14 -7 -13 19 -11 28 5 28 9 0 12 -7 9 -21z m37 -49 c0 -5
-2 -10 -4 -10 -3 0 -8 5 -11 10 -3 6 -1 10 4 10 6 0 11 -4 11 -10z m103 -24
c-3 -4 -9 -2 -14 5 -13 22 -11 31 5 17 8 -7 12 -17 9 -22z m-863 4 c0 -5 -5
-10 -11 -10 -5 0 -7 5 -4 10 3 6 8 10 11 10 2 0 4 -4 4 -10z m-2550 -105 c0
-8 -2 -15 -4 -15 -2 0 -6 7 -10 15 -3 8 -1 15 4 15 6 0 10 -7 10 -15z m3417
-7 c-3 -8 -6 -5 -6 6 -1 11 2 17 5 13 3 -3 4 -12 1 -19z m54 -21 c-8 -8 -11
-3 -11 19 1 25 2 27 11 11 8 -14 8 -22 0 -30z m137 -93 c12 -13 22 -26 22 -30
0 -4 10 -19 23 -32 l22 -25 -23 12 c-13 7 -28 23 -34 37 -6 13 -18 24 -27 24
-9 0 -24 9 -33 19 -33 39 11 35 50 -5z m-108 -34 c0 -5 -2 -10 -4 -10 -3 0 -8
5 -11 10 -3 6 -1 10 4 10 6 0 11 -4 11 -10z m-742 -110 c12 -16 22 -32 22 -35
0 -6 53 -86 72 -110 5 -5 27 -38 50 -72 22 -35 45 -63 49 -63 5 0 9 -12 9 -26
0 -30 -5 -29 -104 16 -72 33 -86 46 -91 91 -3 18 -8 35 -13 38 -5 3 -14 38
-20 78 -20 121 -14 138 26 83z m962 10 c12 -8 11 -10 -7 -10 -13 0 -23 5 -23
10 0 13 11 13 30 0z m14 -52 c-3 -5 -12 -4 -20 3 -7 6 -11 15 -8 21 3 5 12 4
20 -3 7 -6 11 -15 8 -21z m-44 -13 c0 -8 -4 -15 -10 -15 -5 0 -10 7 -10 15 0
8 5 15 10 15 6 0 10 -7 10 -15z m109 -22 c2 -2 -5 -3 -17 -3 -14 0 -22 6 -22
16 0 14 3 15 18 3 9 -7 19 -15 21 -16z m-39 -24 c0 -5 -11 -9 -25 -9 -14 0
-25 4 -25 9 0 5 11 9 25 9 14 0 25 -4 25 -9z m128 -90 c-9 -6 -15 -1 -20 14
-3 13 -7 16 -8 7 -1 -8 -8 1 -15 20 -7 19 -14 31 -14 27 -1 -5 -6 -5 -11 -2
-6 4 -7 11 -4 17 3 5 24 -9 46 -33 29 -31 36 -44 26 -50z m-1371 -149 c14 -11
20 -20 14 -20 -19 0 -51 19 -51 30 0 15 9 12 37 -10z m1183 -20 c0 -5 -5 -10
-11 -10 -5 0 -7 5 -4 10 3 6 8 10 11 10 2 0 4 -4 4 -10z"/>
<path d="M1050 5800 c0 -5 10 -10 23 -10 18 0 19 2 7 10 -19 13 -30 13 -30 0z"/>
<path d="M5238 5655 c-35 -57 -115 -565 -89 -565 6 0 11 1 11 3 0 1 7 59 15
127 16 131 20 156 56 310 19 86 23 151 7 125z"/>
<path d="M5292 5578 c-79 -244 -135 -547 -100 -536 8 3 17 40 25 104 13 117
40 244 78 369 15 50 30 98 32 108 3 9 1 17 -5 17 -6 0 -19 -28 -30 -62z"/>
<path d="M5327 5493 c-3 -16 -14 -66 -25 -113 -31 -137 -56 -289 -49 -297 12
-12 17 3 32 88 8 46 17 98 21 114 7 40 43 195 50 218 3 11 0 17 -9 17 -8 0
-17 -12 -20 -27z"/>
<path d="M4684 4153 c-9 -32 -17 -60 -18 -63 0 -3 3 -6 8 -8 12 -4 45 73 45
106 1 42 -18 22 -35 -35z"/>
<path d="M4752 4188 c-14 -17 -42 -87 -42 -104 0 -32 19 -10 40 46 22 59 23
83 2 58z"/>
<path d="M4765 4110 c-17 -34 -19 -50 -5 -50 8 0 40 61 40 76 0 15 -22 -1 -35
-26z"/>
<path d="M4800 4067 c-14 -29 -7 -48 11 -30 6 6 9 21 7 34 l-4 24 -14 -28z"/>
<path d="M4817 4014 c-3 -3 2 -20 12 -37 10 -18 34 -62 54 -98 20 -36 37 -74
37 -83 0 -10 9 -31 21 -47 12 -17 23 -47 25 -67 2 -20 8 -80 14 -132 6 -52 13
-120 15 -150 3 -30 10 -89 17 -130 6 -41 12 -128 12 -192 1 -114 7 -143 20
-95 12 44 6 150 -24 409 -34 296 -35 335 -15 362 18 24 9 41 -13 24 -14 -11
-14 -8 1 15 21 32 16 47 -8 27 -24 -20 -27 -6 -5 23 31 39 23 56 -9 19 l-29
-33 -19 28 c-11 15 -36 58 -57 96 -39 70 -39 71 -49 61z"/>
<path d="M3080 3356 c0 -2 12 -51 26 -108 14 -56 30 -122 35 -145 10 -42 29
-59 29 -27 0 14 -24 113 -61 247 -5 20 -14 37 -19 37 -6 0 -10 -2 -10 -4z"/>
<path d="M3027 3323 c-9 -14 43 -283 54 -283 14 0 11 35 -12 155 -23 116 -32
144 -42 128z"/>
<path d="M3152 3309 c3 -8 20 -61 37 -119 18 -58 39 -112 48 -120 13 -13 14
-11 8 18 -14 67 -73 226 -85 230 -8 3 -11 -1 -8 -9z"/>
<path d="M3247 3293 c-13 -22 74 -255 90 -240 2 2 -25 83 -80 242 -2 5 -6 4
-10 -2z"/>
<path d="M3320 3257 c0 -19 89 -212 99 -215 16 -5 10 19 -23 93 -13 28 -30 67
-39 88 -9 20 -21 37 -27 37 -5 0 -10 -1 -10 -3z"/>
<path d="M3430 3163 c19 -48 71 -153 80 -158 5 -3 11 -2 13 2 7 12 -76 176
-91 181 -9 3 -10 -3 -2 -25z"/>
<path d="M6570 4120 c0 -5 5 -10 10 -10 6 0 10 5 10 10 0 6 -4 10 -10 10 -5 0
-10 -4 -10 -10z"/>
<path d="M6244 3266 c3 -21 8 -42 12 -45 4 -3 5 4 2 16 -3 12 -2 23 2 25 5 2
2 12 -6 23 -13 18 -14 16 -10 -19z"/>
<path d="M6186 3235 c-3 -8 -1 -15 4 -15 6 0 10 7 10 15 0 8 -2 15 -4 15 -2 0
-6 -7 -10 -15z"/>
<path d="M6240 3139 c0 -5 5 -7 10 -4 6 3 10 8 10 11 0 2 -4 4 -10 4 -5 0 -10
-5 -10 -11z"/>
<path d="M6100 2970 c-6 -12 -9 -24 -7 -27 3 -2 11 5 17 17 6 12 9 24 7 27 -3
2 -11 -5 -17 -17z"/>
<path d="M6172 2965 c0 -16 2 -22 5 -12 2 9 2 23 0 30 -3 6 -5 -1 -5 -18z"/>
<path d="M6066 2845 c-9 -26 -7 -32 5 -12 6 10 9 21 6 23 -2 3 -7 -2 -11 -11z"/>
<path d="M6103 2846 c3 -7 1 -18 -5 -24 -14 -14 -21 -82 -9 -82 11 0 31 63 31
98 0 12 -5 22 -11 22 -6 0 -9 -6 -6 -14z"/>
<path d="M6155 2850 c3 -5 8 -10 11 -10 2 0 4 5 4 10 0 6 -5 10 -11 10 -5 0
-7 -4 -4 -10z"/>
<path d="M5977 2576 c-4 -10 -1 -13 9 -9 15 6 19 23 5 23 -5 0 -11 -7 -14 -14z"/>
<path d="M5810 1980 c0 -5 5 -10 11 -10 5 0 7 5 4 10 -3 6 -8 10 -11 10 -2 0
-4 -4 -4 -10z"/>
<path d="M1883 7168 c-6 -7 -13 -24 -16 -38 -3 -14 -17 -65 -30 -115 -13 -49
-32 -128 -41 -175 -10 -47 -20 -96 -24 -110 -9 -31 -1 -84 13 -82 6 1 12 14
13 29 2 15 8 33 12 38 5 6 12 41 16 79 4 37 12 73 18 79 7 7 32 62 55 122 24
61 51 121 61 135 34 50 34 50 -18 50 -28 0 -54 -6 -59 -12z"/>
<path d="M2471 7162 c-10 -20 -16 -41 -33 -129 -5 -29 -14 -53 -20 -53 -5 0
-6 -5 -3 -10 3 -6 1 -72 -5 -148 -8 -100 -8 -167 0 -247 6 -60 14 -143 16
-183 5 -68 7 -73 27 -70 26 4 26 11 3 160 -25 159 -23 274 10 526 3 23 9 40
15 37 5 -4 9 14 9 39 0 25 5 46 10 46 6 0 10 11 10 25 0 30 -25 34 -39 7z"/>
<path d="M3892 7167 c-35 -42 -138 -285 -149 -349 -8 -53 12 -44 22 9 4 21 15
57 26 80 10 23 19 46 19 50 0 5 25 57 55 116 30 59 50 107 46 107 -5 0 -13 -6
-19 -13z"/>
<path d="M4940 7163 c0 -10 5 -25 10 -33 7 -11 10 -7 10 18 0 17 -4 32 -10 32
-5 0 -10 -8 -10 -17z"/>
<path d="M5400 7173 c1 -13 40 -56 46 -51 9 9 -19 58 -33 58 -7 0 -13 -3 -13
-7z"/>
<path d="M5092 6865 c0 -16 2 -22 5 -12 2 9 2 23 0 30 -3 6 -5 -1 -5 -18z"/>
<path d="M5092 6730 c0 -14 2 -19 5 -12 2 6 2 18 0 25 -3 6 -5 1 -5 -13z"/>
<path d="M5091 6463 c0 -25 1 -26 9 -8 12 27 12 35 0 35 -5 0 -10 -12 -9 -27z"/>
<path d="M925 6190 c-3 -5 -1 -10 4 -10 6 0 11 5 11 10 0 6 -2 10 -4 10 -3 0
-8 -4 -11 -10z"/>
<path d="M4940 6180 c0 -21 -15 -52 -39 -82 -10 -12 -10 -18 -3 -18 7 0 12
-10 12 -22 0 -19 2 -20 10 -8 6 10 10 11 10 3 0 -8 14 -13 35 -13 19 0 35 5
35 10 0 6 -4 10 -10 10 -5 0 -10 11 -10 25 0 14 -4 25 -10 25 -5 0 -10 20 -10
45 0 25 -4 45 -10 45 -5 0 -10 -9 -10 -20z"/>
<path d="M3648 6183 c7 -3 16 -2 19 1 4 3 -2 6 -13 5 -11 0 -14 -3 -6 -6z"/>
<path d="M900 6150 c0 -5 5 -10 10 -10 6 0 10 5 10 10 0 6 -4 10 -10 10 -5 0
-10 -4 -10 -10z"/>
<path d="M1367 6124 c6 -15 23 -19 23 -5 0 5 -7 11 -14 14 -10 4 -13 1 -9 -9z"/>
<path d="M2490 6131 c0 -5 5 -13 10 -16 6 -3 10 -2 10 4 0 5 -4 13 -10 16 -5
3 -10 2 -10 -4z"/>
<path d="M5005 6051 c0 -22 3 -37 7 -35 5 3 8 21 8 40 0 19 -3 34 -8 34 -4 0
-7 -18 -7 -39z"/>
<path d="M5261 6044 c0 -11 3 -14 6 -6 3 7 2 16 -1 19 -3 4 -6 -2 -5 -13z"/>
<path d="M2090 5903 c0 -6 6 -15 13 -21 14 -11 97 -21 97 -11 0 10 -28 19 -59
19 -15 0 -32 5 -39 12 -8 8 -12 8 -12 1z"/>
<path d="M2182 5731 c-11 -7 -11 -9 2 -14 10 -4 16 -1 16 8 0 17 -1 17 -18 6z"/>
<path d="M2200 5691 c0 -6 5 -13 10 -16 6 -3 10 1 10 9 0 9 -4 16 -10 16 -5 0
-10 -4 -10 -9z"/>
<path d="M5037 5643 c-4 -3 -7 -11 -7 -17 0 -6 5 -5 12 2 6 6 9 14 7 17 -3 3
-9 2 -12 -2z"/>
<path d="M5007 5617 c-11 -29 -9 -43 4 -30 6 6 9 19 7 29 -3 18 -4 18 -11 1z"/>
<path d="M6660 5076 c0 -2 7 -7 16 -10 8 -3 12 -2 9 4 -6 10 -25 14 -25 6z"/>
<path d="M6373 5005 c0 -7 6 -11 14 -8 7 3 13 6 13 8 0 2 -6 5 -13 8 -8 3 -14
-1 -14 -8z"/>
<path d="M6330 5000 c8 -5 20 -10 25 -10 6 0 3 5 -5 10 -8 5 -19 10 -25 10 -5
0 -3 -5 5 -10z"/>
<path d="M6845 4960 c11 -5 27 -9 35 -9 9 0 8 4 -5 9 -11 5 -27 9 -35 9 -9 0
-8 -4 5 -9z"/>
<path d="M6420 4950 c-8 -5 -10 -10 -5 -10 6 0 17 5 25 10 8 5 11 10 5 10 -5
0 -17 -5 -25 -10z"/>
<path d="M6705 4850 c-7 -11 2 -30 15 -30 4 0 10 6 13 14 6 16 -19 30 -28 16z"/>
<path d="M6764 4805 c15 -8 36 -15 45 -14 9 0 3 6 -14 14 -41 19 -67 19 -31 0z"/>
<path d="M6477 2053 c-3 -4 -14 -25 -26 -45 -12 -21 -30 -54 -41 -73 -11 -19
-20 -37 -20 -40 -1 -2 -11 -28 -24 -57 -52 -119 -87 -238 -80 -276 14 -79 155
-199 262 -223 45 -11 53 -10 80 10 47 33 90 93 101 142 17 72 13 189 -8 234
-17 38 -77 95 -100 95 -19 0 -12 -16 12 -29 39 -21 68 -75 78 -147 5 -38 7
-80 4 -94 -6 -28 -65 -103 -65 -82 0 9 -5 10 -19 2 -32 -17 -60 -12 -123 23
-75 40 -114 99 -123 183 -3 32 -8 61 -11 65 -5 8 57 178 77 213 43 74 49 90
41 98 -5 5 -12 6 -15 1z"/>
</g>
</svg>
